<mxfile host="app.diagrams.net" modified="2023-07-10T07:19:30.243Z" agent="Mozilla/5.0 (X11; Linux x86_64) AppleWebKit/537.36 (KHTML, like Gecko) Chrome/114.0.0.0 Safari/537.36 Edg/114.0.1823.67" etag="rrs54E7UmwA8cu4j00Qf" version="21.6.1" type="github">
  <diagram name="Page-1" id="A-Po0V6Mx6evFvEKK2EB">
    <mxGraphModel dx="617" dy="876" grid="1" gridSize="10" guides="1" tooltips="1" connect="1" arrows="1" fold="1" page="1" pageScale="1" pageWidth="827" pageHeight="1169" math="0" shadow="0">
      <root>
        <mxCell id="0" />
        <mxCell id="1" parent="0" />
        <mxCell id="WEL1u7EoO-uWLKGqIcht-317" value="" style="rounded=1;whiteSpace=wrap;html=1;absoluteArcSize=1;arcSize=14;strokeWidth=2;fontSize=16;opacity=30;fillColor=#e6d0de;gradientColor=#d5739d;strokeColor=#996185;" vertex="1" parent="1">
          <mxGeometry x="420" y="1730" width="160" height="390" as="geometry" />
        </mxCell>
        <mxCell id="WEL1u7EoO-uWLKGqIcht-316" value="" style="rounded=1;whiteSpace=wrap;html=1;absoluteArcSize=1;arcSize=14;strokeWidth=2;fontSize=16;opacity=30;fillColor=#dae8fc;gradientColor=#7ea6e0;strokeColor=#6c8ebf;" vertex="1" parent="1">
          <mxGeometry x="220" y="1800" width="160" height="350" as="geometry" />
        </mxCell>
        <mxCell id="WEL1u7EoO-uWLKGqIcht-1" value="Selection Sort" style="shape=process;whiteSpace=wrap;html=1;backgroundOutline=1;fontSize=16;" vertex="1" parent="1">
          <mxGeometry x="280" y="40" width="280" height="40" as="geometry" />
        </mxCell>
        <mxCell id="WEL1u7EoO-uWLKGqIcht-2" value="" style="rounded=0;whiteSpace=wrap;html=1;fontSize=16;" vertex="1" parent="1">
          <mxGeometry x="40" y="160" width="40" height="40" as="geometry" />
        </mxCell>
        <mxCell id="WEL1u7EoO-uWLKGqIcht-3" value="0" style="rounded=0;whiteSpace=wrap;html=1;fontSize=16;" vertex="1" parent="1">
          <mxGeometry x="40" y="140" width="40" height="20" as="geometry" />
        </mxCell>
        <mxCell id="WEL1u7EoO-uWLKGqIcht-4" value="12" style="ellipse;whiteSpace=wrap;html=1;aspect=fixed;fontSize=16;fillColor=#dae8fc;strokeColor=#6c8ebf;" vertex="1" parent="1">
          <mxGeometry x="40" y="160" width="40" height="40" as="geometry" />
        </mxCell>
        <mxCell id="WEL1u7EoO-uWLKGqIcht-5" value="" style="rounded=0;whiteSpace=wrap;html=1;fontSize=16;" vertex="1" parent="1">
          <mxGeometry x="80" y="160" width="40" height="40" as="geometry" />
        </mxCell>
        <mxCell id="WEL1u7EoO-uWLKGqIcht-6" value="1" style="rounded=0;whiteSpace=wrap;html=1;fontSize=16;" vertex="1" parent="1">
          <mxGeometry x="80" y="140" width="40" height="20" as="geometry" />
        </mxCell>
        <mxCell id="WEL1u7EoO-uWLKGqIcht-7" value="13" style="ellipse;whiteSpace=wrap;html=1;aspect=fixed;fontSize=16;fillColor=#dae8fc;strokeColor=#6c8ebf;" vertex="1" parent="1">
          <mxGeometry x="80" y="160" width="40" height="40" as="geometry" />
        </mxCell>
        <mxCell id="WEL1u7EoO-uWLKGqIcht-8" value="" style="rounded=0;whiteSpace=wrap;html=1;fontSize=16;" vertex="1" parent="1">
          <mxGeometry x="120" y="160" width="40" height="40" as="geometry" />
        </mxCell>
        <mxCell id="WEL1u7EoO-uWLKGqIcht-9" value="2" style="rounded=0;whiteSpace=wrap;html=1;fontSize=16;" vertex="1" parent="1">
          <mxGeometry x="120" y="140" width="40" height="20" as="geometry" />
        </mxCell>
        <mxCell id="WEL1u7EoO-uWLKGqIcht-10" value="11" style="ellipse;whiteSpace=wrap;html=1;aspect=fixed;fontSize=16;fillColor=#dae8fc;strokeColor=#6c8ebf;" vertex="1" parent="1">
          <mxGeometry x="120" y="160" width="40" height="40" as="geometry" />
        </mxCell>
        <mxCell id="WEL1u7EoO-uWLKGqIcht-11" value="" style="rounded=0;whiteSpace=wrap;html=1;fontSize=16;" vertex="1" parent="1">
          <mxGeometry x="160" y="160" width="40" height="40" as="geometry" />
        </mxCell>
        <mxCell id="WEL1u7EoO-uWLKGqIcht-12" value="3" style="rounded=0;whiteSpace=wrap;html=1;fontSize=16;" vertex="1" parent="1">
          <mxGeometry x="160" y="140" width="40" height="20" as="geometry" />
        </mxCell>
        <mxCell id="WEL1u7EoO-uWLKGqIcht-13" value="14" style="ellipse;whiteSpace=wrap;html=1;aspect=fixed;fontSize=16;fillColor=#dae8fc;strokeColor=#6c8ebf;" vertex="1" parent="1">
          <mxGeometry x="160" y="160" width="40" height="40" as="geometry" />
        </mxCell>
        <mxCell id="WEL1u7EoO-uWLKGqIcht-14" value="" style="rounded=0;whiteSpace=wrap;html=1;fontSize=16;" vertex="1" parent="1">
          <mxGeometry x="200" y="160" width="40" height="40" as="geometry" />
        </mxCell>
        <mxCell id="WEL1u7EoO-uWLKGqIcht-15" value="4" style="rounded=0;whiteSpace=wrap;html=1;fontSize=16;" vertex="1" parent="1">
          <mxGeometry x="200" y="140" width="40" height="20" as="geometry" />
        </mxCell>
        <mxCell id="WEL1u7EoO-uWLKGqIcht-16" value="10" style="ellipse;whiteSpace=wrap;html=1;aspect=fixed;fontSize=16;fillColor=#dae8fc;strokeColor=#6c8ebf;" vertex="1" parent="1">
          <mxGeometry x="200" y="160" width="40" height="40" as="geometry" />
        </mxCell>
        <mxCell id="WEL1u7EoO-uWLKGqIcht-17" value="" style="rounded=0;whiteSpace=wrap;html=1;fontSize=16;" vertex="1" parent="1">
          <mxGeometry x="40" y="280" width="40" height="40" as="geometry" />
        </mxCell>
        <mxCell id="WEL1u7EoO-uWLKGqIcht-18" value="0" style="rounded=0;whiteSpace=wrap;html=1;fontSize=16;fillColor=#ffe6cc;strokeColor=#d79b00;" vertex="1" parent="1">
          <mxGeometry x="40" y="260" width="40" height="20" as="geometry" />
        </mxCell>
        <mxCell id="WEL1u7EoO-uWLKGqIcht-19" value="12" style="ellipse;whiteSpace=wrap;html=1;aspect=fixed;fontSize=16;fillColor=#dae8fc;strokeColor=#6c8ebf;" vertex="1" parent="1">
          <mxGeometry x="40" y="280" width="40" height="40" as="geometry" />
        </mxCell>
        <mxCell id="WEL1u7EoO-uWLKGqIcht-20" value="" style="rounded=0;whiteSpace=wrap;html=1;fontSize=16;" vertex="1" parent="1">
          <mxGeometry x="80" y="280" width="40" height="40" as="geometry" />
        </mxCell>
        <mxCell id="WEL1u7EoO-uWLKGqIcht-21" value="1" style="rounded=0;whiteSpace=wrap;html=1;fontSize=16;" vertex="1" parent="1">
          <mxGeometry x="80" y="260" width="40" height="20" as="geometry" />
        </mxCell>
        <mxCell id="WEL1u7EoO-uWLKGqIcht-22" value="13" style="ellipse;whiteSpace=wrap;html=1;aspect=fixed;fontSize=16;fillColor=#dae8fc;strokeColor=#6c8ebf;" vertex="1" parent="1">
          <mxGeometry x="80" y="280" width="40" height="40" as="geometry" />
        </mxCell>
        <mxCell id="WEL1u7EoO-uWLKGqIcht-23" value="" style="rounded=0;whiteSpace=wrap;html=1;fontSize=16;" vertex="1" parent="1">
          <mxGeometry x="120" y="280" width="40" height="40" as="geometry" />
        </mxCell>
        <mxCell id="WEL1u7EoO-uWLKGqIcht-24" value="2" style="rounded=0;whiteSpace=wrap;html=1;fontSize=16;" vertex="1" parent="1">
          <mxGeometry x="120" y="260" width="40" height="20" as="geometry" />
        </mxCell>
        <mxCell id="WEL1u7EoO-uWLKGqIcht-25" value="11" style="ellipse;whiteSpace=wrap;html=1;aspect=fixed;fontSize=16;fillColor=#dae8fc;strokeColor=#6c8ebf;" vertex="1" parent="1">
          <mxGeometry x="120" y="280" width="40" height="40" as="geometry" />
        </mxCell>
        <mxCell id="WEL1u7EoO-uWLKGqIcht-26" value="" style="rounded=0;whiteSpace=wrap;html=1;fontSize=16;" vertex="1" parent="1">
          <mxGeometry x="160" y="280" width="40" height="40" as="geometry" />
        </mxCell>
        <mxCell id="WEL1u7EoO-uWLKGqIcht-27" value="3" style="rounded=0;whiteSpace=wrap;html=1;fontSize=16;" vertex="1" parent="1">
          <mxGeometry x="160" y="260" width="40" height="20" as="geometry" />
        </mxCell>
        <mxCell id="WEL1u7EoO-uWLKGqIcht-28" value="14" style="ellipse;whiteSpace=wrap;html=1;aspect=fixed;fontSize=16;fillColor=#dae8fc;strokeColor=#6c8ebf;" vertex="1" parent="1">
          <mxGeometry x="160" y="280" width="40" height="40" as="geometry" />
        </mxCell>
        <mxCell id="WEL1u7EoO-uWLKGqIcht-29" value="" style="rounded=0;whiteSpace=wrap;html=1;fontSize=16;" vertex="1" parent="1">
          <mxGeometry x="200" y="280" width="40" height="40" as="geometry" />
        </mxCell>
        <mxCell id="WEL1u7EoO-uWLKGqIcht-30" value="4" style="rounded=0;whiteSpace=wrap;html=1;fontSize=16;" vertex="1" parent="1">
          <mxGeometry x="200" y="260" width="40" height="20" as="geometry" />
        </mxCell>
        <mxCell id="WEL1u7EoO-uWLKGqIcht-31" value="10" style="ellipse;whiteSpace=wrap;html=1;aspect=fixed;fontSize=16;fillColor=#f8cecc;strokeColor=#b85450;" vertex="1" parent="1">
          <mxGeometry x="200" y="280" width="40" height="40" as="geometry" />
        </mxCell>
        <mxCell id="WEL1u7EoO-uWLKGqIcht-47" value="" style="rounded=0;whiteSpace=wrap;html=1;fontSize=16;" vertex="1" parent="1">
          <mxGeometry x="40" y="400" width="40" height="40" as="geometry" />
        </mxCell>
        <mxCell id="WEL1u7EoO-uWLKGqIcht-48" value="0" style="rounded=0;whiteSpace=wrap;html=1;fontSize=16;fillColor=#fff2cc;strokeColor=#d6b656;" vertex="1" parent="1">
          <mxGeometry x="40" y="380" width="40" height="20" as="geometry" />
        </mxCell>
        <mxCell id="WEL1u7EoO-uWLKGqIcht-49" value="12" style="ellipse;whiteSpace=wrap;html=1;aspect=fixed;fontSize=16;fillColor=#dae8fc;strokeColor=#6c8ebf;" vertex="1" parent="1">
          <mxGeometry x="200" y="440" width="40" height="40" as="geometry" />
        </mxCell>
        <mxCell id="WEL1u7EoO-uWLKGqIcht-50" value="" style="rounded=0;whiteSpace=wrap;html=1;fontSize=16;" vertex="1" parent="1">
          <mxGeometry x="80" y="400" width="40" height="40" as="geometry" />
        </mxCell>
        <mxCell id="WEL1u7EoO-uWLKGqIcht-51" value="1" style="rounded=0;whiteSpace=wrap;html=1;fontSize=16;" vertex="1" parent="1">
          <mxGeometry x="80" y="380" width="40" height="20" as="geometry" />
        </mxCell>
        <mxCell id="WEL1u7EoO-uWLKGqIcht-52" value="13" style="ellipse;whiteSpace=wrap;html=1;aspect=fixed;fontSize=16;fillColor=#dae8fc;strokeColor=#6c8ebf;" vertex="1" parent="1">
          <mxGeometry x="80" y="400" width="40" height="40" as="geometry" />
        </mxCell>
        <mxCell id="WEL1u7EoO-uWLKGqIcht-53" value="" style="rounded=0;whiteSpace=wrap;html=1;fontSize=16;" vertex="1" parent="1">
          <mxGeometry x="120" y="400" width="40" height="40" as="geometry" />
        </mxCell>
        <mxCell id="WEL1u7EoO-uWLKGqIcht-54" value="2" style="rounded=0;whiteSpace=wrap;html=1;fontSize=16;" vertex="1" parent="1">
          <mxGeometry x="120" y="380" width="40" height="20" as="geometry" />
        </mxCell>
        <mxCell id="WEL1u7EoO-uWLKGqIcht-55" value="11" style="ellipse;whiteSpace=wrap;html=1;aspect=fixed;fontSize=16;fillColor=#dae8fc;strokeColor=#6c8ebf;" vertex="1" parent="1">
          <mxGeometry x="120" y="400" width="40" height="40" as="geometry" />
        </mxCell>
        <mxCell id="WEL1u7EoO-uWLKGqIcht-56" value="" style="rounded=0;whiteSpace=wrap;html=1;fontSize=16;" vertex="1" parent="1">
          <mxGeometry x="160" y="400" width="40" height="40" as="geometry" />
        </mxCell>
        <mxCell id="WEL1u7EoO-uWLKGqIcht-57" value="3" style="rounded=0;whiteSpace=wrap;html=1;fontSize=16;" vertex="1" parent="1">
          <mxGeometry x="160" y="380" width="40" height="20" as="geometry" />
        </mxCell>
        <mxCell id="WEL1u7EoO-uWLKGqIcht-58" value="14" style="ellipse;whiteSpace=wrap;html=1;aspect=fixed;fontSize=16;fillColor=#dae8fc;strokeColor=#6c8ebf;" vertex="1" parent="1">
          <mxGeometry x="160" y="400" width="40" height="40" as="geometry" />
        </mxCell>
        <mxCell id="WEL1u7EoO-uWLKGqIcht-59" value="" style="rounded=0;whiteSpace=wrap;html=1;fontSize=16;" vertex="1" parent="1">
          <mxGeometry x="200" y="400" width="40" height="40" as="geometry" />
        </mxCell>
        <mxCell id="WEL1u7EoO-uWLKGqIcht-60" value="4" style="rounded=0;whiteSpace=wrap;html=1;fontSize=16;" vertex="1" parent="1">
          <mxGeometry x="200" y="380" width="40" height="20" as="geometry" />
        </mxCell>
        <mxCell id="WEL1u7EoO-uWLKGqIcht-61" value="10" style="ellipse;whiteSpace=wrap;html=1;aspect=fixed;fontSize=16;fillColor=#f8cecc;strokeColor=#b85450;" vertex="1" parent="1">
          <mxGeometry x="40" y="340" width="40" height="40" as="geometry" />
        </mxCell>
        <mxCell id="WEL1u7EoO-uWLKGqIcht-62" value="" style="rounded=0;whiteSpace=wrap;html=1;fontSize=16;" vertex="1" parent="1">
          <mxGeometry x="40" y="520" width="40" height="40" as="geometry" />
        </mxCell>
        <mxCell id="WEL1u7EoO-uWLKGqIcht-63" value="0" style="rounded=0;whiteSpace=wrap;html=1;fontSize=16;fillColor=#fff2cc;strokeColor=#d6b656;" vertex="1" parent="1">
          <mxGeometry x="40" y="500" width="40" height="20" as="geometry" />
        </mxCell>
        <mxCell id="WEL1u7EoO-uWLKGqIcht-65" value="" style="rounded=0;whiteSpace=wrap;html=1;fontSize=16;" vertex="1" parent="1">
          <mxGeometry x="80" y="520" width="40" height="40" as="geometry" />
        </mxCell>
        <mxCell id="WEL1u7EoO-uWLKGqIcht-66" value="1" style="rounded=0;whiteSpace=wrap;html=1;fontSize=16;" vertex="1" parent="1">
          <mxGeometry x="80" y="500" width="40" height="20" as="geometry" />
        </mxCell>
        <mxCell id="WEL1u7EoO-uWLKGqIcht-67" value="13" style="ellipse;whiteSpace=wrap;html=1;aspect=fixed;fontSize=16;fillColor=#dae8fc;strokeColor=#6c8ebf;" vertex="1" parent="1">
          <mxGeometry x="80" y="520" width="40" height="40" as="geometry" />
        </mxCell>
        <mxCell id="WEL1u7EoO-uWLKGqIcht-68" value="" style="rounded=0;whiteSpace=wrap;html=1;fontSize=16;" vertex="1" parent="1">
          <mxGeometry x="120" y="520" width="40" height="40" as="geometry" />
        </mxCell>
        <mxCell id="WEL1u7EoO-uWLKGqIcht-69" value="2" style="rounded=0;whiteSpace=wrap;html=1;fontSize=16;" vertex="1" parent="1">
          <mxGeometry x="120" y="500" width="40" height="20" as="geometry" />
        </mxCell>
        <mxCell id="WEL1u7EoO-uWLKGqIcht-70" value="11" style="ellipse;whiteSpace=wrap;html=1;aspect=fixed;fontSize=16;fillColor=#dae8fc;strokeColor=#6c8ebf;" vertex="1" parent="1">
          <mxGeometry x="120" y="520" width="40" height="40" as="geometry" />
        </mxCell>
        <mxCell id="WEL1u7EoO-uWLKGqIcht-71" value="" style="rounded=0;whiteSpace=wrap;html=1;fontSize=16;" vertex="1" parent="1">
          <mxGeometry x="160" y="520" width="40" height="40" as="geometry" />
        </mxCell>
        <mxCell id="WEL1u7EoO-uWLKGqIcht-72" value="3" style="rounded=0;whiteSpace=wrap;html=1;fontSize=16;" vertex="1" parent="1">
          <mxGeometry x="160" y="500" width="40" height="20" as="geometry" />
        </mxCell>
        <mxCell id="WEL1u7EoO-uWLKGqIcht-73" value="14" style="ellipse;whiteSpace=wrap;html=1;aspect=fixed;fontSize=16;fillColor=#dae8fc;strokeColor=#6c8ebf;" vertex="1" parent="1">
          <mxGeometry x="160" y="520" width="40" height="40" as="geometry" />
        </mxCell>
        <mxCell id="WEL1u7EoO-uWLKGqIcht-74" value="" style="rounded=0;whiteSpace=wrap;html=1;fontSize=16;" vertex="1" parent="1">
          <mxGeometry x="200" y="520" width="40" height="40" as="geometry" />
        </mxCell>
        <mxCell id="WEL1u7EoO-uWLKGqIcht-75" value="4" style="rounded=0;whiteSpace=wrap;html=1;fontSize=16;" vertex="1" parent="1">
          <mxGeometry x="200" y="500" width="40" height="20" as="geometry" />
        </mxCell>
        <mxCell id="WEL1u7EoO-uWLKGqIcht-76" value="10" style="ellipse;whiteSpace=wrap;html=1;aspect=fixed;fontSize=16;fillColor=#f8cecc;strokeColor=#b85450;" vertex="1" parent="1">
          <mxGeometry x="40" y="520" width="40" height="40" as="geometry" />
        </mxCell>
        <mxCell id="WEL1u7EoO-uWLKGqIcht-64" value="12" style="ellipse;whiteSpace=wrap;html=1;aspect=fixed;fontSize=16;fillColor=#dae8fc;strokeColor=#6c8ebf;" vertex="1" parent="1">
          <mxGeometry x="200" y="520" width="40" height="40" as="geometry" />
        </mxCell>
        <mxCell id="WEL1u7EoO-uWLKGqIcht-77" value="정렬완료" style="rounded=0;whiteSpace=wrap;html=1;fontSize=10;fillColor=#fff2cc;strokeColor=#d6b656;" vertex="1" parent="1">
          <mxGeometry x="40" y="480" width="40" height="20" as="geometry" />
        </mxCell>
        <mxCell id="WEL1u7EoO-uWLKGqIcht-78" value="" style="rounded=0;whiteSpace=wrap;html=1;fontSize=16;" vertex="1" parent="1">
          <mxGeometry x="40" y="640" width="40" height="40" as="geometry" />
        </mxCell>
        <mxCell id="WEL1u7EoO-uWLKGqIcht-79" value="0" style="rounded=0;whiteSpace=wrap;html=1;fontSize=16;fillColor=#fff2cc;strokeColor=#d6b656;" vertex="1" parent="1">
          <mxGeometry x="40" y="620" width="40" height="20" as="geometry" />
        </mxCell>
        <mxCell id="WEL1u7EoO-uWLKGqIcht-80" value="" style="rounded=0;whiteSpace=wrap;html=1;fontSize=16;" vertex="1" parent="1">
          <mxGeometry x="80" y="640" width="40" height="40" as="geometry" />
        </mxCell>
        <mxCell id="WEL1u7EoO-uWLKGqIcht-81" value="1" style="rounded=0;whiteSpace=wrap;html=1;fontSize=16;fillColor=#fff2cc;strokeColor=#d6b656;" vertex="1" parent="1">
          <mxGeometry x="80" y="620" width="40" height="20" as="geometry" />
        </mxCell>
        <mxCell id="WEL1u7EoO-uWLKGqIcht-82" value="13" style="ellipse;whiteSpace=wrap;html=1;aspect=fixed;fontSize=16;fillColor=#dae8fc;strokeColor=#6c8ebf;" vertex="1" parent="1">
          <mxGeometry x="80" y="640" width="40" height="40" as="geometry" />
        </mxCell>
        <mxCell id="WEL1u7EoO-uWLKGqIcht-83" value="" style="rounded=0;whiteSpace=wrap;html=1;fontSize=16;" vertex="1" parent="1">
          <mxGeometry x="120" y="640" width="40" height="40" as="geometry" />
        </mxCell>
        <mxCell id="WEL1u7EoO-uWLKGqIcht-84" value="2" style="rounded=0;whiteSpace=wrap;html=1;fontSize=16;" vertex="1" parent="1">
          <mxGeometry x="120" y="620" width="40" height="20" as="geometry" />
        </mxCell>
        <mxCell id="WEL1u7EoO-uWLKGqIcht-85" value="11" style="ellipse;whiteSpace=wrap;html=1;aspect=fixed;fontSize=16;fillColor=#f8cecc;strokeColor=#b85450;" vertex="1" parent="1">
          <mxGeometry x="120" y="640" width="40" height="40" as="geometry" />
        </mxCell>
        <mxCell id="WEL1u7EoO-uWLKGqIcht-86" value="" style="rounded=0;whiteSpace=wrap;html=1;fontSize=16;" vertex="1" parent="1">
          <mxGeometry x="160" y="640" width="40" height="40" as="geometry" />
        </mxCell>
        <mxCell id="WEL1u7EoO-uWLKGqIcht-87" value="3" style="rounded=0;whiteSpace=wrap;html=1;fontSize=16;" vertex="1" parent="1">
          <mxGeometry x="160" y="620" width="40" height="20" as="geometry" />
        </mxCell>
        <mxCell id="WEL1u7EoO-uWLKGqIcht-88" value="14" style="ellipse;whiteSpace=wrap;html=1;aspect=fixed;fontSize=16;fillColor=#dae8fc;strokeColor=#6c8ebf;" vertex="1" parent="1">
          <mxGeometry x="160" y="640" width="40" height="40" as="geometry" />
        </mxCell>
        <mxCell id="WEL1u7EoO-uWLKGqIcht-89" value="" style="rounded=0;whiteSpace=wrap;html=1;fontSize=16;" vertex="1" parent="1">
          <mxGeometry x="200" y="640" width="40" height="40" as="geometry" />
        </mxCell>
        <mxCell id="WEL1u7EoO-uWLKGqIcht-90" value="4" style="rounded=0;whiteSpace=wrap;html=1;fontSize=16;" vertex="1" parent="1">
          <mxGeometry x="200" y="620" width="40" height="20" as="geometry" />
        </mxCell>
        <mxCell id="WEL1u7EoO-uWLKGqIcht-91" value="10" style="ellipse;whiteSpace=wrap;html=1;aspect=fixed;fontSize=16;fillColor=#f8cecc;strokeColor=#b85450;" vertex="1" parent="1">
          <mxGeometry x="40" y="640" width="40" height="40" as="geometry" />
        </mxCell>
        <mxCell id="WEL1u7EoO-uWLKGqIcht-92" value="12" style="ellipse;whiteSpace=wrap;html=1;aspect=fixed;fontSize=16;fillColor=#dae8fc;strokeColor=#6c8ebf;" vertex="1" parent="1">
          <mxGeometry x="200" y="640" width="40" height="40" as="geometry" />
        </mxCell>
        <mxCell id="WEL1u7EoO-uWLKGqIcht-93" value="정렬완료" style="rounded=0;whiteSpace=wrap;html=1;fontSize=10;fillColor=#fff2cc;strokeColor=#d6b656;" vertex="1" parent="1">
          <mxGeometry x="40" y="600" width="40" height="20" as="geometry" />
        </mxCell>
        <mxCell id="WEL1u7EoO-uWLKGqIcht-94" value="" style="rounded=0;whiteSpace=wrap;html=1;fontSize=16;" vertex="1" parent="1">
          <mxGeometry x="40" y="800" width="40" height="40" as="geometry" />
        </mxCell>
        <mxCell id="WEL1u7EoO-uWLKGqIcht-95" value="0" style="rounded=0;whiteSpace=wrap;html=1;fontSize=16;fillColor=#fff2cc;strokeColor=#d6b656;" vertex="1" parent="1">
          <mxGeometry x="40" y="780" width="40" height="20" as="geometry" />
        </mxCell>
        <mxCell id="WEL1u7EoO-uWLKGqIcht-96" value="" style="rounded=0;whiteSpace=wrap;html=1;fontSize=16;" vertex="1" parent="1">
          <mxGeometry x="80" y="800" width="40" height="40" as="geometry" />
        </mxCell>
        <mxCell id="WEL1u7EoO-uWLKGqIcht-97" value="1" style="rounded=0;whiteSpace=wrap;html=1;fontSize=16;fillColor=#fff2cc;strokeColor=#d6b656;" vertex="1" parent="1">
          <mxGeometry x="80" y="780" width="40" height="20" as="geometry" />
        </mxCell>
        <mxCell id="WEL1u7EoO-uWLKGqIcht-98" value="13" style="ellipse;whiteSpace=wrap;html=1;aspect=fixed;fontSize=16;fillColor=#dae8fc;strokeColor=#6c8ebf;" vertex="1" parent="1">
          <mxGeometry x="120" y="840" width="40" height="40" as="geometry" />
        </mxCell>
        <mxCell id="WEL1u7EoO-uWLKGqIcht-99" value="" style="rounded=0;whiteSpace=wrap;html=1;fontSize=16;" vertex="1" parent="1">
          <mxGeometry x="120" y="800" width="40" height="40" as="geometry" />
        </mxCell>
        <mxCell id="WEL1u7EoO-uWLKGqIcht-100" value="2" style="rounded=0;whiteSpace=wrap;html=1;fontSize=16;" vertex="1" parent="1">
          <mxGeometry x="120" y="780" width="40" height="20" as="geometry" />
        </mxCell>
        <mxCell id="WEL1u7EoO-uWLKGqIcht-101" value="11" style="ellipse;whiteSpace=wrap;html=1;aspect=fixed;fontSize=16;fillColor=#f8cecc;strokeColor=#b85450;" vertex="1" parent="1">
          <mxGeometry x="80" y="740" width="40" height="40" as="geometry" />
        </mxCell>
        <mxCell id="WEL1u7EoO-uWLKGqIcht-102" value="" style="rounded=0;whiteSpace=wrap;html=1;fontSize=16;" vertex="1" parent="1">
          <mxGeometry x="160" y="800" width="40" height="40" as="geometry" />
        </mxCell>
        <mxCell id="WEL1u7EoO-uWLKGqIcht-103" value="3" style="rounded=0;whiteSpace=wrap;html=1;fontSize=16;" vertex="1" parent="1">
          <mxGeometry x="160" y="780" width="40" height="20" as="geometry" />
        </mxCell>
        <mxCell id="WEL1u7EoO-uWLKGqIcht-104" value="14" style="ellipse;whiteSpace=wrap;html=1;aspect=fixed;fontSize=16;fillColor=#dae8fc;strokeColor=#6c8ebf;" vertex="1" parent="1">
          <mxGeometry x="160" y="800" width="40" height="40" as="geometry" />
        </mxCell>
        <mxCell id="WEL1u7EoO-uWLKGqIcht-105" value="" style="rounded=0;whiteSpace=wrap;html=1;fontSize=16;" vertex="1" parent="1">
          <mxGeometry x="200" y="800" width="40" height="40" as="geometry" />
        </mxCell>
        <mxCell id="WEL1u7EoO-uWLKGqIcht-106" value="4" style="rounded=0;whiteSpace=wrap;html=1;fontSize=16;" vertex="1" parent="1">
          <mxGeometry x="200" y="780" width="40" height="20" as="geometry" />
        </mxCell>
        <mxCell id="WEL1u7EoO-uWLKGqIcht-107" value="10" style="ellipse;whiteSpace=wrap;html=1;aspect=fixed;fontSize=16;fillColor=#f8cecc;strokeColor=#b85450;" vertex="1" parent="1">
          <mxGeometry x="40" y="800" width="40" height="40" as="geometry" />
        </mxCell>
        <mxCell id="WEL1u7EoO-uWLKGqIcht-108" value="12" style="ellipse;whiteSpace=wrap;html=1;aspect=fixed;fontSize=16;fillColor=#dae8fc;strokeColor=#6c8ebf;" vertex="1" parent="1">
          <mxGeometry x="200" y="800" width="40" height="40" as="geometry" />
        </mxCell>
        <mxCell id="WEL1u7EoO-uWLKGqIcht-109" value="정렬완료" style="rounded=0;whiteSpace=wrap;html=1;fontSize=10;fillColor=#fff2cc;strokeColor=#d6b656;" vertex="1" parent="1">
          <mxGeometry x="40" y="760" width="40" height="20" as="geometry" />
        </mxCell>
        <mxCell id="WEL1u7EoO-uWLKGqIcht-110" value="" style="rounded=0;whiteSpace=wrap;html=1;fontSize=16;" vertex="1" parent="1">
          <mxGeometry x="40" y="960" width="40" height="40" as="geometry" />
        </mxCell>
        <mxCell id="WEL1u7EoO-uWLKGqIcht-111" value="0" style="rounded=0;whiteSpace=wrap;html=1;fontSize=16;fillColor=#fff2cc;strokeColor=#d6b656;" vertex="1" parent="1">
          <mxGeometry x="40" y="940" width="40" height="20" as="geometry" />
        </mxCell>
        <mxCell id="WEL1u7EoO-uWLKGqIcht-112" value="" style="rounded=0;whiteSpace=wrap;html=1;fontSize=16;" vertex="1" parent="1">
          <mxGeometry x="80" y="960" width="40" height="40" as="geometry" />
        </mxCell>
        <mxCell id="WEL1u7EoO-uWLKGqIcht-113" value="1" style="rounded=0;whiteSpace=wrap;html=1;fontSize=16;fillColor=#fff2cc;strokeColor=#d6b656;" vertex="1" parent="1">
          <mxGeometry x="80" y="940" width="40" height="20" as="geometry" />
        </mxCell>
        <mxCell id="WEL1u7EoO-uWLKGqIcht-115" value="" style="rounded=0;whiteSpace=wrap;html=1;fontSize=16;" vertex="1" parent="1">
          <mxGeometry x="120" y="960" width="40" height="40" as="geometry" />
        </mxCell>
        <mxCell id="WEL1u7EoO-uWLKGqIcht-116" value="2" style="rounded=0;whiteSpace=wrap;html=1;fontSize=16;fillColor=#fff2cc;strokeColor=#d6b656;" vertex="1" parent="1">
          <mxGeometry x="120" y="940" width="40" height="20" as="geometry" />
        </mxCell>
        <mxCell id="WEL1u7EoO-uWLKGqIcht-117" value="11" style="ellipse;whiteSpace=wrap;html=1;aspect=fixed;fontSize=16;fillColor=#f8cecc;strokeColor=#b85450;" vertex="1" parent="1">
          <mxGeometry x="80" y="960" width="40" height="40" as="geometry" />
        </mxCell>
        <mxCell id="WEL1u7EoO-uWLKGqIcht-118" value="" style="rounded=0;whiteSpace=wrap;html=1;fontSize=16;" vertex="1" parent="1">
          <mxGeometry x="160" y="960" width="40" height="40" as="geometry" />
        </mxCell>
        <mxCell id="WEL1u7EoO-uWLKGqIcht-119" value="3" style="rounded=0;whiteSpace=wrap;html=1;fontSize=16;" vertex="1" parent="1">
          <mxGeometry x="160" y="940" width="40" height="20" as="geometry" />
        </mxCell>
        <mxCell id="WEL1u7EoO-uWLKGqIcht-120" value="14" style="ellipse;whiteSpace=wrap;html=1;aspect=fixed;fontSize=16;fillColor=#dae8fc;strokeColor=#6c8ebf;" vertex="1" parent="1">
          <mxGeometry x="160" y="960" width="40" height="40" as="geometry" />
        </mxCell>
        <mxCell id="WEL1u7EoO-uWLKGqIcht-121" value="" style="rounded=0;whiteSpace=wrap;html=1;fontSize=16;" vertex="1" parent="1">
          <mxGeometry x="200" y="960" width="40" height="40" as="geometry" />
        </mxCell>
        <mxCell id="WEL1u7EoO-uWLKGqIcht-122" value="4" style="rounded=0;whiteSpace=wrap;html=1;fontSize=16;" vertex="1" parent="1">
          <mxGeometry x="200" y="940" width="40" height="20" as="geometry" />
        </mxCell>
        <mxCell id="WEL1u7EoO-uWLKGqIcht-123" value="10" style="ellipse;whiteSpace=wrap;html=1;aspect=fixed;fontSize=16;fillColor=#f8cecc;strokeColor=#b85450;" vertex="1" parent="1">
          <mxGeometry x="40" y="960" width="40" height="40" as="geometry" />
        </mxCell>
        <mxCell id="WEL1u7EoO-uWLKGqIcht-124" value="12" style="ellipse;whiteSpace=wrap;html=1;aspect=fixed;fontSize=16;fillColor=#f8cecc;strokeColor=#b85450;" vertex="1" parent="1">
          <mxGeometry x="200" y="960" width="40" height="40" as="geometry" />
        </mxCell>
        <mxCell id="WEL1u7EoO-uWLKGqIcht-125" value="정렬완료" style="rounded=0;whiteSpace=wrap;html=1;fontSize=10;fillColor=#fff2cc;strokeColor=#d6b656;" vertex="1" parent="1">
          <mxGeometry x="40" y="920" width="80" height="20" as="geometry" />
        </mxCell>
        <mxCell id="WEL1u7EoO-uWLKGqIcht-114" value="13" style="ellipse;whiteSpace=wrap;html=1;aspect=fixed;fontSize=16;fillColor=#dae8fc;strokeColor=#6c8ebf;" vertex="1" parent="1">
          <mxGeometry x="120" y="960" width="40" height="40" as="geometry" />
        </mxCell>
        <mxCell id="WEL1u7EoO-uWLKGqIcht-126" value="" style="rounded=0;whiteSpace=wrap;html=1;fontSize=16;" vertex="1" parent="1">
          <mxGeometry x="40" y="1080" width="40" height="40" as="geometry" />
        </mxCell>
        <mxCell id="WEL1u7EoO-uWLKGqIcht-127" value="0" style="rounded=0;whiteSpace=wrap;html=1;fontSize=16;fillColor=#fff2cc;strokeColor=#d6b656;" vertex="1" parent="1">
          <mxGeometry x="40" y="1060" width="40" height="20" as="geometry" />
        </mxCell>
        <mxCell id="WEL1u7EoO-uWLKGqIcht-128" value="" style="rounded=0;whiteSpace=wrap;html=1;fontSize=16;" vertex="1" parent="1">
          <mxGeometry x="80" y="1080" width="40" height="40" as="geometry" />
        </mxCell>
        <mxCell id="WEL1u7EoO-uWLKGqIcht-129" value="1" style="rounded=0;whiteSpace=wrap;html=1;fontSize=16;fillColor=#fff2cc;strokeColor=#d6b656;" vertex="1" parent="1">
          <mxGeometry x="80" y="1060" width="40" height="20" as="geometry" />
        </mxCell>
        <mxCell id="WEL1u7EoO-uWLKGqIcht-130" value="" style="rounded=0;whiteSpace=wrap;html=1;fontSize=16;" vertex="1" parent="1">
          <mxGeometry x="120" y="1080" width="40" height="40" as="geometry" />
        </mxCell>
        <mxCell id="WEL1u7EoO-uWLKGqIcht-131" value="2" style="rounded=0;whiteSpace=wrap;html=1;fontSize=16;fillColor=#fff2cc;strokeColor=#d6b656;" vertex="1" parent="1">
          <mxGeometry x="120" y="1060" width="40" height="20" as="geometry" />
        </mxCell>
        <mxCell id="WEL1u7EoO-uWLKGqIcht-132" value="11" style="ellipse;whiteSpace=wrap;html=1;aspect=fixed;fontSize=16;fillColor=#f8cecc;strokeColor=#b85450;" vertex="1" parent="1">
          <mxGeometry x="80" y="1080" width="40" height="40" as="geometry" />
        </mxCell>
        <mxCell id="WEL1u7EoO-uWLKGqIcht-133" value="" style="rounded=0;whiteSpace=wrap;html=1;fontSize=16;" vertex="1" parent="1">
          <mxGeometry x="160" y="1080" width="40" height="40" as="geometry" />
        </mxCell>
        <mxCell id="WEL1u7EoO-uWLKGqIcht-134" value="3" style="rounded=0;whiteSpace=wrap;html=1;fontSize=16;" vertex="1" parent="1">
          <mxGeometry x="160" y="1060" width="40" height="20" as="geometry" />
        </mxCell>
        <mxCell id="WEL1u7EoO-uWLKGqIcht-135" value="14" style="ellipse;whiteSpace=wrap;html=1;aspect=fixed;fontSize=16;fillColor=#f8cecc;strokeColor=#b85450;" vertex="1" parent="1">
          <mxGeometry x="160" y="1080" width="40" height="40" as="geometry" />
        </mxCell>
        <mxCell id="WEL1u7EoO-uWLKGqIcht-136" value="" style="rounded=0;whiteSpace=wrap;html=1;fontSize=16;" vertex="1" parent="1">
          <mxGeometry x="200" y="1080" width="40" height="40" as="geometry" />
        </mxCell>
        <mxCell id="WEL1u7EoO-uWLKGqIcht-137" value="4" style="rounded=0;whiteSpace=wrap;html=1;fontSize=16;" vertex="1" parent="1">
          <mxGeometry x="200" y="1060" width="40" height="20" as="geometry" />
        </mxCell>
        <mxCell id="WEL1u7EoO-uWLKGqIcht-138" value="10" style="ellipse;whiteSpace=wrap;html=1;aspect=fixed;fontSize=16;fillColor=#f8cecc;strokeColor=#b85450;" vertex="1" parent="1">
          <mxGeometry x="40" y="1080" width="40" height="40" as="geometry" />
        </mxCell>
        <mxCell id="WEL1u7EoO-uWLKGqIcht-139" value="12" style="ellipse;whiteSpace=wrap;html=1;aspect=fixed;fontSize=16;fillColor=#f8cecc;strokeColor=#b85450;" vertex="1" parent="1">
          <mxGeometry x="120" y="1080" width="40" height="40" as="geometry" />
        </mxCell>
        <mxCell id="WEL1u7EoO-uWLKGqIcht-140" value="정렬완료" style="rounded=0;whiteSpace=wrap;html=1;fontSize=10;fillColor=#fff2cc;strokeColor=#d6b656;" vertex="1" parent="1">
          <mxGeometry x="40" y="1040" width="80" height="20" as="geometry" />
        </mxCell>
        <mxCell id="WEL1u7EoO-uWLKGqIcht-141" value="13" style="ellipse;whiteSpace=wrap;html=1;aspect=fixed;fontSize=16;fillColor=#dae8fc;strokeColor=#6c8ebf;" vertex="1" parent="1">
          <mxGeometry x="200" y="1080" width="40" height="40" as="geometry" />
        </mxCell>
        <mxCell id="WEL1u7EoO-uWLKGqIcht-142" value="" style="rounded=0;whiteSpace=wrap;html=1;fontSize=16;" vertex="1" parent="1">
          <mxGeometry x="40" y="1200" width="40" height="40" as="geometry" />
        </mxCell>
        <mxCell id="WEL1u7EoO-uWLKGqIcht-143" value="0" style="rounded=0;whiteSpace=wrap;html=1;fontSize=16;fillColor=#fff2cc;strokeColor=#d6b656;" vertex="1" parent="1">
          <mxGeometry x="40" y="1180" width="40" height="20" as="geometry" />
        </mxCell>
        <mxCell id="WEL1u7EoO-uWLKGqIcht-144" value="" style="rounded=0;whiteSpace=wrap;html=1;fontSize=16;" vertex="1" parent="1">
          <mxGeometry x="80" y="1200" width="40" height="40" as="geometry" />
        </mxCell>
        <mxCell id="WEL1u7EoO-uWLKGqIcht-145" value="1" style="rounded=0;whiteSpace=wrap;html=1;fontSize=16;fillColor=#fff2cc;strokeColor=#d6b656;" vertex="1" parent="1">
          <mxGeometry x="80" y="1180" width="40" height="20" as="geometry" />
        </mxCell>
        <mxCell id="WEL1u7EoO-uWLKGqIcht-146" value="" style="rounded=0;whiteSpace=wrap;html=1;fontSize=16;" vertex="1" parent="1">
          <mxGeometry x="120" y="1200" width="40" height="40" as="geometry" />
        </mxCell>
        <mxCell id="WEL1u7EoO-uWLKGqIcht-147" value="2" style="rounded=0;whiteSpace=wrap;html=1;fontSize=16;fillColor=#fff2cc;strokeColor=#d6b656;" vertex="1" parent="1">
          <mxGeometry x="120" y="1180" width="40" height="20" as="geometry" />
        </mxCell>
        <mxCell id="WEL1u7EoO-uWLKGqIcht-148" value="11" style="ellipse;whiteSpace=wrap;html=1;aspect=fixed;fontSize=16;fillColor=#f8cecc;strokeColor=#b85450;" vertex="1" parent="1">
          <mxGeometry x="80" y="1200" width="40" height="40" as="geometry" />
        </mxCell>
        <mxCell id="WEL1u7EoO-uWLKGqIcht-149" value="" style="rounded=0;whiteSpace=wrap;html=1;fontSize=16;" vertex="1" parent="1">
          <mxGeometry x="160" y="1200" width="40" height="40" as="geometry" />
        </mxCell>
        <mxCell id="WEL1u7EoO-uWLKGqIcht-150" value="3" style="rounded=0;whiteSpace=wrap;html=1;fontSize=16;fillColor=#fff2cc;strokeColor=#d6b656;" vertex="1" parent="1">
          <mxGeometry x="160" y="1180" width="40" height="20" as="geometry" />
        </mxCell>
        <mxCell id="WEL1u7EoO-uWLKGqIcht-152" value="" style="rounded=0;whiteSpace=wrap;html=1;fontSize=16;" vertex="1" parent="1">
          <mxGeometry x="200" y="1200" width="40" height="40" as="geometry" />
        </mxCell>
        <mxCell id="WEL1u7EoO-uWLKGqIcht-153" value="4" style="rounded=0;whiteSpace=wrap;html=1;fontSize=16;" vertex="1" parent="1">
          <mxGeometry x="200" y="1180" width="40" height="20" as="geometry" />
        </mxCell>
        <mxCell id="WEL1u7EoO-uWLKGqIcht-154" value="10" style="ellipse;whiteSpace=wrap;html=1;aspect=fixed;fontSize=16;fillColor=#f8cecc;strokeColor=#b85450;" vertex="1" parent="1">
          <mxGeometry x="40" y="1200" width="40" height="40" as="geometry" />
        </mxCell>
        <mxCell id="WEL1u7EoO-uWLKGqIcht-155" value="12" style="ellipse;whiteSpace=wrap;html=1;aspect=fixed;fontSize=16;fillColor=#f8cecc;strokeColor=#b85450;" vertex="1" parent="1">
          <mxGeometry x="120" y="1200" width="40" height="40" as="geometry" />
        </mxCell>
        <mxCell id="WEL1u7EoO-uWLKGqIcht-156" value="정렬완료" style="rounded=0;whiteSpace=wrap;html=1;fontSize=10;fillColor=#fff2cc;strokeColor=#d6b656;" vertex="1" parent="1">
          <mxGeometry x="40" y="1160" width="120" height="20" as="geometry" />
        </mxCell>
        <mxCell id="WEL1u7EoO-uWLKGqIcht-157" value="13" style="ellipse;whiteSpace=wrap;html=1;aspect=fixed;fontSize=16;fillColor=#dae8fc;strokeColor=#6c8ebf;" vertex="1" parent="1">
          <mxGeometry x="160" y="1200" width="40" height="40" as="geometry" />
        </mxCell>
        <mxCell id="WEL1u7EoO-uWLKGqIcht-158" value="" style="rounded=0;whiteSpace=wrap;html=1;fontSize=16;" vertex="1" parent="1">
          <mxGeometry x="40" y="1320" width="40" height="40" as="geometry" />
        </mxCell>
        <mxCell id="WEL1u7EoO-uWLKGqIcht-159" value="0" style="rounded=0;whiteSpace=wrap;html=1;fontSize=16;fillColor=#fff2cc;strokeColor=#d6b656;" vertex="1" parent="1">
          <mxGeometry x="40" y="1300" width="40" height="20" as="geometry" />
        </mxCell>
        <mxCell id="WEL1u7EoO-uWLKGqIcht-160" value="" style="rounded=0;whiteSpace=wrap;html=1;fontSize=16;" vertex="1" parent="1">
          <mxGeometry x="80" y="1320" width="40" height="40" as="geometry" />
        </mxCell>
        <mxCell id="WEL1u7EoO-uWLKGqIcht-161" value="1" style="rounded=0;whiteSpace=wrap;html=1;fontSize=16;fillColor=#fff2cc;strokeColor=#d6b656;" vertex="1" parent="1">
          <mxGeometry x="80" y="1300" width="40" height="20" as="geometry" />
        </mxCell>
        <mxCell id="WEL1u7EoO-uWLKGqIcht-162" value="" style="rounded=0;whiteSpace=wrap;html=1;fontSize=16;" vertex="1" parent="1">
          <mxGeometry x="120" y="1320" width="40" height="40" as="geometry" />
        </mxCell>
        <mxCell id="WEL1u7EoO-uWLKGqIcht-163" value="2" style="rounded=0;whiteSpace=wrap;html=1;fontSize=16;fillColor=#fff2cc;strokeColor=#d6b656;" vertex="1" parent="1">
          <mxGeometry x="120" y="1300" width="40" height="20" as="geometry" />
        </mxCell>
        <mxCell id="WEL1u7EoO-uWLKGqIcht-164" value="11" style="ellipse;whiteSpace=wrap;html=1;aspect=fixed;fontSize=16;fillColor=#f8cecc;strokeColor=#b85450;" vertex="1" parent="1">
          <mxGeometry x="80" y="1320" width="40" height="40" as="geometry" />
        </mxCell>
        <mxCell id="WEL1u7EoO-uWLKGqIcht-165" value="" style="rounded=0;whiteSpace=wrap;html=1;fontSize=16;" vertex="1" parent="1">
          <mxGeometry x="160" y="1320" width="40" height="40" as="geometry" />
        </mxCell>
        <mxCell id="WEL1u7EoO-uWLKGqIcht-166" value="3" style="rounded=0;whiteSpace=wrap;html=1;fontSize=16;fillColor=#fff2cc;strokeColor=#d6b656;" vertex="1" parent="1">
          <mxGeometry x="160" y="1300" width="40" height="20" as="geometry" />
        </mxCell>
        <mxCell id="WEL1u7EoO-uWLKGqIcht-168" value="" style="rounded=0;whiteSpace=wrap;html=1;fontSize=16;" vertex="1" parent="1">
          <mxGeometry x="200" y="1320" width="40" height="40" as="geometry" />
        </mxCell>
        <mxCell id="WEL1u7EoO-uWLKGqIcht-169" value="4" style="rounded=0;whiteSpace=wrap;html=1;fontSize=16;" vertex="1" parent="1">
          <mxGeometry x="200" y="1300" width="40" height="20" as="geometry" />
        </mxCell>
        <mxCell id="WEL1u7EoO-uWLKGqIcht-170" value="10" style="ellipse;whiteSpace=wrap;html=1;aspect=fixed;fontSize=16;fillColor=#f8cecc;strokeColor=#b85450;" vertex="1" parent="1">
          <mxGeometry x="40" y="1320" width="40" height="40" as="geometry" />
        </mxCell>
        <mxCell id="WEL1u7EoO-uWLKGqIcht-171" value="12" style="ellipse;whiteSpace=wrap;html=1;aspect=fixed;fontSize=16;fillColor=#f8cecc;strokeColor=#b85450;" vertex="1" parent="1">
          <mxGeometry x="120" y="1320" width="40" height="40" as="geometry" />
        </mxCell>
        <mxCell id="WEL1u7EoO-uWLKGqIcht-172" value="정렬완료" style="rounded=0;whiteSpace=wrap;html=1;fontSize=10;fillColor=#fff2cc;strokeColor=#d6b656;" vertex="1" parent="1">
          <mxGeometry x="40" y="1280" width="160" height="20" as="geometry" />
        </mxCell>
        <mxCell id="WEL1u7EoO-uWLKGqIcht-173" value="13" style="ellipse;whiteSpace=wrap;html=1;aspect=fixed;fontSize=16;fillColor=#f8cecc;strokeColor=#b85450;" vertex="1" parent="1">
          <mxGeometry x="160" y="1320" width="40" height="40" as="geometry" />
        </mxCell>
        <mxCell id="WEL1u7EoO-uWLKGqIcht-167" value="14" style="ellipse;whiteSpace=wrap;html=1;aspect=fixed;fontSize=16;fillColor=#dae8fc;strokeColor=#6c8ebf;" vertex="1" parent="1">
          <mxGeometry x="200" y="1320" width="40" height="40" as="geometry" />
        </mxCell>
        <mxCell id="WEL1u7EoO-uWLKGqIcht-151" value="14" style="ellipse;whiteSpace=wrap;html=1;aspect=fixed;fontSize=16;fillColor=#f8cecc;strokeColor=#b85450;" vertex="1" parent="1">
          <mxGeometry x="200" y="1200" width="40" height="40" as="geometry" />
        </mxCell>
        <mxCell id="WEL1u7EoO-uWLKGqIcht-174" value="" style="rounded=0;whiteSpace=wrap;html=1;fontSize=16;" vertex="1" parent="1">
          <mxGeometry x="40" y="1440" width="40" height="40" as="geometry" />
        </mxCell>
        <mxCell id="WEL1u7EoO-uWLKGqIcht-175" value="0" style="rounded=0;whiteSpace=wrap;html=1;fontSize=16;fillColor=#fff2cc;strokeColor=#d6b656;" vertex="1" parent="1">
          <mxGeometry x="40" y="1420" width="40" height="20" as="geometry" />
        </mxCell>
        <mxCell id="WEL1u7EoO-uWLKGqIcht-176" value="" style="rounded=0;whiteSpace=wrap;html=1;fontSize=16;" vertex="1" parent="1">
          <mxGeometry x="80" y="1440" width="40" height="40" as="geometry" />
        </mxCell>
        <mxCell id="WEL1u7EoO-uWLKGqIcht-177" value="1" style="rounded=0;whiteSpace=wrap;html=1;fontSize=16;fillColor=#fff2cc;strokeColor=#d6b656;" vertex="1" parent="1">
          <mxGeometry x="80" y="1420" width="40" height="20" as="geometry" />
        </mxCell>
        <mxCell id="WEL1u7EoO-uWLKGqIcht-178" value="" style="rounded=0;whiteSpace=wrap;html=1;fontSize=16;" vertex="1" parent="1">
          <mxGeometry x="120" y="1440" width="40" height="40" as="geometry" />
        </mxCell>
        <mxCell id="WEL1u7EoO-uWLKGqIcht-179" value="2" style="rounded=0;whiteSpace=wrap;html=1;fontSize=16;fillColor=#fff2cc;strokeColor=#d6b656;" vertex="1" parent="1">
          <mxGeometry x="120" y="1420" width="40" height="20" as="geometry" />
        </mxCell>
        <mxCell id="WEL1u7EoO-uWLKGqIcht-180" value="11" style="ellipse;whiteSpace=wrap;html=1;aspect=fixed;fontSize=16;fillColor=#f8cecc;strokeColor=#b85450;" vertex="1" parent="1">
          <mxGeometry x="80" y="1440" width="40" height="40" as="geometry" />
        </mxCell>
        <mxCell id="WEL1u7EoO-uWLKGqIcht-181" value="" style="rounded=0;whiteSpace=wrap;html=1;fontSize=16;" vertex="1" parent="1">
          <mxGeometry x="160" y="1440" width="40" height="40" as="geometry" />
        </mxCell>
        <mxCell id="WEL1u7EoO-uWLKGqIcht-182" value="3" style="rounded=0;whiteSpace=wrap;html=1;fontSize=16;fillColor=#fff2cc;strokeColor=#d6b656;" vertex="1" parent="1">
          <mxGeometry x="160" y="1420" width="40" height="20" as="geometry" />
        </mxCell>
        <mxCell id="WEL1u7EoO-uWLKGqIcht-183" value="" style="rounded=0;whiteSpace=wrap;html=1;fontSize=16;" vertex="1" parent="1">
          <mxGeometry x="200" y="1440" width="40" height="40" as="geometry" />
        </mxCell>
        <mxCell id="WEL1u7EoO-uWLKGqIcht-184" value="4" style="rounded=0;whiteSpace=wrap;html=1;fontSize=16;fillColor=#fff2cc;strokeColor=#d6b656;" vertex="1" parent="1">
          <mxGeometry x="200" y="1420" width="40" height="20" as="geometry" />
        </mxCell>
        <mxCell id="WEL1u7EoO-uWLKGqIcht-185" value="10" style="ellipse;whiteSpace=wrap;html=1;aspect=fixed;fontSize=16;fillColor=#f8cecc;strokeColor=#b85450;" vertex="1" parent="1">
          <mxGeometry x="40" y="1440" width="40" height="40" as="geometry" />
        </mxCell>
        <mxCell id="WEL1u7EoO-uWLKGqIcht-186" value="12" style="ellipse;whiteSpace=wrap;html=1;aspect=fixed;fontSize=16;fillColor=#f8cecc;strokeColor=#b85450;" vertex="1" parent="1">
          <mxGeometry x="120" y="1440" width="40" height="40" as="geometry" />
        </mxCell>
        <mxCell id="WEL1u7EoO-uWLKGqIcht-187" value="정렬완료" style="rounded=0;whiteSpace=wrap;html=1;fontSize=10;fillColor=#fff2cc;strokeColor=#d6b656;" vertex="1" parent="1">
          <mxGeometry x="40" y="1400" width="200" height="20" as="geometry" />
        </mxCell>
        <mxCell id="WEL1u7EoO-uWLKGqIcht-188" value="13" style="ellipse;whiteSpace=wrap;html=1;aspect=fixed;fontSize=16;fillColor=#f8cecc;strokeColor=#b85450;" vertex="1" parent="1">
          <mxGeometry x="160" y="1440" width="40" height="40" as="geometry" />
        </mxCell>
        <mxCell id="WEL1u7EoO-uWLKGqIcht-189" value="14" style="ellipse;whiteSpace=wrap;html=1;aspect=fixed;fontSize=16;fillColor=#f8cecc;strokeColor=#b85450;" vertex="1" parent="1">
          <mxGeometry x="200" y="1440" width="40" height="40" as="geometry" />
        </mxCell>
        <mxCell id="WEL1u7EoO-uWLKGqIcht-202" style="edgeStyle=none;curved=1;rounded=0;orthogonalLoop=1;jettySize=auto;html=1;entryX=0.5;entryY=0;entryDx=0;entryDy=0;fontSize=12;startSize=8;endSize=8;" edge="1" parent="1" target="WEL1u7EoO-uWLKGqIcht-192">
          <mxGeometry relative="1" as="geometry">
            <mxPoint x="380" y="120.00000000000011" as="sourcePoint" />
          </mxGeometry>
        </mxCell>
        <mxCell id="WEL1u7EoO-uWLKGqIcht-204" style="edgeStyle=none;curved=1;rounded=0;orthogonalLoop=1;jettySize=auto;html=1;entryX=0.5;entryY=0;entryDx=0;entryDy=0;fontSize=12;startSize=8;endSize=8;" edge="1" parent="1" source="WEL1u7EoO-uWLKGqIcht-192" target="WEL1u7EoO-uWLKGqIcht-194">
          <mxGeometry relative="1" as="geometry" />
        </mxCell>
        <mxCell id="WEL1u7EoO-uWLKGqIcht-192" value="arr[0]부터 arr[4] 사이의 최소값을 찾는다.&amp;nbsp;" style="rounded=1;whiteSpace=wrap;html=1;absoluteArcSize=1;arcSize=14;strokeWidth=2;fontSize=16;fillColor=#f8cecc;strokeColor=#b85450;" vertex="1" parent="1">
          <mxGeometry x="280" y="160" width="200" height="40" as="geometry" />
        </mxCell>
        <mxCell id="WEL1u7EoO-uWLKGqIcht-205" style="edgeStyle=none;curved=1;rounded=0;orthogonalLoop=1;jettySize=auto;html=1;entryX=0.5;entryY=0;entryDx=0;entryDy=0;fontSize=12;startSize=8;endSize=8;" edge="1" parent="1" source="WEL1u7EoO-uWLKGqIcht-194" target="WEL1u7EoO-uWLKGqIcht-195">
          <mxGeometry relative="1" as="geometry" />
        </mxCell>
        <mxCell id="WEL1u7EoO-uWLKGqIcht-194" value="찾은 최소값과 arr[0] 의 데이터를 교환한다.&amp;nbsp;" style="rounded=1;whiteSpace=wrap;html=1;absoluteArcSize=1;arcSize=14;strokeWidth=2;fontSize=16;fillColor=#f8cecc;strokeColor=#b85450;" vertex="1" parent="1">
          <mxGeometry x="280" y="240" width="200" height="40" as="geometry" />
        </mxCell>
        <mxCell id="WEL1u7EoO-uWLKGqIcht-206" style="edgeStyle=none;curved=1;rounded=0;orthogonalLoop=1;jettySize=auto;html=1;entryX=0.5;entryY=0;entryDx=0;entryDy=0;fontSize=12;startSize=8;endSize=8;" edge="1" parent="1" source="WEL1u7EoO-uWLKGqIcht-195" target="WEL1u7EoO-uWLKGqIcht-196">
          <mxGeometry relative="1" as="geometry" />
        </mxCell>
        <mxCell id="WEL1u7EoO-uWLKGqIcht-195" value="arr[1]부터 arr[4] 사이의 최소값을 찾는다.&amp;nbsp;" style="rounded=1;whiteSpace=wrap;html=1;absoluteArcSize=1;arcSize=14;strokeWidth=2;fontSize=16;" vertex="1" parent="1">
          <mxGeometry x="280" y="320" width="200" height="40" as="geometry" />
        </mxCell>
        <mxCell id="WEL1u7EoO-uWLKGqIcht-207" style="edgeStyle=none;curved=1;rounded=0;orthogonalLoop=1;jettySize=auto;html=1;entryX=0.5;entryY=0;entryDx=0;entryDy=0;fontSize=12;startSize=8;endSize=8;" edge="1" parent="1" source="WEL1u7EoO-uWLKGqIcht-196" target="WEL1u7EoO-uWLKGqIcht-197">
          <mxGeometry relative="1" as="geometry" />
        </mxCell>
        <mxCell id="WEL1u7EoO-uWLKGqIcht-196" value="찾은 최소값과 arr[1] 의 데이터를 교환한다.&amp;nbsp;" style="rounded=1;whiteSpace=wrap;html=1;absoluteArcSize=1;arcSize=14;strokeWidth=2;fontSize=16;" vertex="1" parent="1">
          <mxGeometry x="280" y="400" width="200" height="40" as="geometry" />
        </mxCell>
        <mxCell id="WEL1u7EoO-uWLKGqIcht-208" style="edgeStyle=none;curved=1;rounded=0;orthogonalLoop=1;jettySize=auto;html=1;entryX=0.5;entryY=0;entryDx=0;entryDy=0;fontSize=12;startSize=8;endSize=8;" edge="1" parent="1" source="WEL1u7EoO-uWLKGqIcht-197" target="WEL1u7EoO-uWLKGqIcht-198">
          <mxGeometry relative="1" as="geometry" />
        </mxCell>
        <mxCell id="WEL1u7EoO-uWLKGqIcht-197" value="arr[2]부터 arr[4] 사이의 최소값을 찾는다.&amp;nbsp;" style="rounded=1;whiteSpace=wrap;html=1;absoluteArcSize=1;arcSize=14;strokeWidth=2;fontSize=16;" vertex="1" parent="1">
          <mxGeometry x="280" y="480" width="200" height="40" as="geometry" />
        </mxCell>
        <mxCell id="WEL1u7EoO-uWLKGqIcht-209" style="edgeStyle=none;curved=1;rounded=0;orthogonalLoop=1;jettySize=auto;html=1;fontSize=12;startSize=8;endSize=8;" edge="1" parent="1" source="WEL1u7EoO-uWLKGqIcht-198" target="WEL1u7EoO-uWLKGqIcht-199">
          <mxGeometry relative="1" as="geometry" />
        </mxCell>
        <mxCell id="WEL1u7EoO-uWLKGqIcht-198" value="찾은 최소값과 arr[2] 의 데이터를 교환한다.&amp;nbsp;" style="rounded=1;whiteSpace=wrap;html=1;absoluteArcSize=1;arcSize=14;strokeWidth=2;fontSize=16;" vertex="1" parent="1">
          <mxGeometry x="280" y="560" width="200" height="40" as="geometry" />
        </mxCell>
        <mxCell id="WEL1u7EoO-uWLKGqIcht-210" style="edgeStyle=none;curved=1;rounded=0;orthogonalLoop=1;jettySize=auto;html=1;entryX=0.5;entryY=0;entryDx=0;entryDy=0;fontSize=12;startSize=8;endSize=8;" edge="1" parent="1" source="WEL1u7EoO-uWLKGqIcht-199" target="WEL1u7EoO-uWLKGqIcht-200">
          <mxGeometry relative="1" as="geometry" />
        </mxCell>
        <mxCell id="WEL1u7EoO-uWLKGqIcht-199" value="arr[3]부터 arr[4] 사이의 최소값을 찾는다.&amp;nbsp;" style="rounded=1;whiteSpace=wrap;html=1;absoluteArcSize=1;arcSize=14;strokeWidth=2;fontSize=16;" vertex="1" parent="1">
          <mxGeometry x="280" y="640" width="200" height="40" as="geometry" />
        </mxCell>
        <mxCell id="WEL1u7EoO-uWLKGqIcht-211" style="edgeStyle=none;curved=1;rounded=0;orthogonalLoop=1;jettySize=auto;html=1;entryX=0.5;entryY=0;entryDx=0;entryDy=0;entryPerimeter=0;fontSize=12;startSize=8;endSize=8;" edge="1" parent="1" source="WEL1u7EoO-uWLKGqIcht-200">
          <mxGeometry relative="1" as="geometry">
            <mxPoint x="380" y="800" as="targetPoint" />
          </mxGeometry>
        </mxCell>
        <mxCell id="WEL1u7EoO-uWLKGqIcht-200" value="찾은 최소값과 arr[3] 의 데이터를 교환한다.&amp;nbsp;" style="rounded=1;whiteSpace=wrap;html=1;absoluteArcSize=1;arcSize=14;strokeWidth=2;fontSize=16;" vertex="1" parent="1">
          <mxGeometry x="280" y="720" width="200" height="40" as="geometry" />
        </mxCell>
        <mxCell id="WEL1u7EoO-uWLKGqIcht-212" style="edgeStyle=none;curved=1;rounded=0;orthogonalLoop=1;jettySize=auto;html=1;entryX=0.5;entryY=0;entryDx=0;entryDy=0;fontSize=12;startSize=8;endSize=8;" edge="1" parent="1" source="WEL1u7EoO-uWLKGqIcht-213" target="WEL1u7EoO-uWLKGqIcht-214">
          <mxGeometry relative="1" as="geometry" />
        </mxCell>
        <mxCell id="WEL1u7EoO-uWLKGqIcht-213" value="arr[i]부터 arr[4] 사이의 최소값을 찾는다.&amp;nbsp;" style="rounded=1;whiteSpace=wrap;html=1;absoluteArcSize=1;arcSize=14;strokeWidth=2;fontSize=16;fillColor=#f8cecc;strokeColor=#b85450;" vertex="1" parent="1">
          <mxGeometry x="540" y="230" width="200" height="40" as="geometry" />
        </mxCell>
        <mxCell id="WEL1u7EoO-uWLKGqIcht-219" style="edgeStyle=none;curved=1;rounded=0;orthogonalLoop=1;jettySize=auto;html=1;entryX=0.5;entryY=0;entryDx=0;entryDy=0;fontSize=12;startSize=8;endSize=8;" edge="1" parent="1" source="WEL1u7EoO-uWLKGqIcht-214" target="WEL1u7EoO-uWLKGqIcht-215">
          <mxGeometry relative="1" as="geometry" />
        </mxCell>
        <mxCell id="WEL1u7EoO-uWLKGqIcht-214" value="찾은 최소값과 arr[i] 의 데이터를 교환한다.&amp;nbsp;" style="rounded=1;whiteSpace=wrap;html=1;absoluteArcSize=1;arcSize=14;strokeWidth=2;fontSize=16;fillColor=#f8cecc;strokeColor=#b85450;" vertex="1" parent="1">
          <mxGeometry x="540" y="310" width="200" height="40" as="geometry" />
        </mxCell>
        <mxCell id="WEL1u7EoO-uWLKGqIcht-222" style="edgeStyle=none;curved=1;rounded=0;orthogonalLoop=1;jettySize=auto;html=1;fontSize=12;startSize=8;endSize=8;strokeWidth=6;" edge="1" parent="1" source="WEL1u7EoO-uWLKGqIcht-215">
          <mxGeometry relative="1" as="geometry">
            <mxPoint x="640" y="210" as="targetPoint" />
            <Array as="points">
              <mxPoint x="640" y="460" />
              <mxPoint x="800" y="450" />
              <mxPoint x="770" y="330" />
              <mxPoint x="800" y="200" />
            </Array>
          </mxGeometry>
        </mxCell>
        <mxCell id="WEL1u7EoO-uWLKGqIcht-215" value="i = i + 1" style="rounded=1;whiteSpace=wrap;html=1;absoluteArcSize=1;arcSize=14;strokeWidth=2;fontSize=16;" vertex="1" parent="1">
          <mxGeometry x="540" y="390" width="200" height="40" as="geometry" />
        </mxCell>
        <mxCell id="WEL1u7EoO-uWLKGqIcht-218" style="edgeStyle=none;curved=1;rounded=0;orthogonalLoop=1;jettySize=auto;html=1;entryX=0.5;entryY=0;entryDx=0;entryDy=0;fontSize=12;startSize=8;endSize=8;" edge="1" parent="1" source="WEL1u7EoO-uWLKGqIcht-216" target="WEL1u7EoO-uWLKGqIcht-213">
          <mxGeometry relative="1" as="geometry" />
        </mxCell>
        <mxCell id="WEL1u7EoO-uWLKGqIcht-216" value="i = 0" style="rounded=1;whiteSpace=wrap;html=1;absoluteArcSize=1;arcSize=14;strokeWidth=2;fontSize=16;" vertex="1" parent="1">
          <mxGeometry x="540" y="160" width="200" height="40" as="geometry" />
        </mxCell>
        <mxCell id="WEL1u7EoO-uWLKGqIcht-229" style="edgeStyle=none;curved=1;rounded=0;orthogonalLoop=1;jettySize=auto;html=1;entryX=0.5;entryY=0;entryDx=0;entryDy=0;entryPerimeter=0;fontSize=12;startSize=8;endSize=8;" edge="1" parent="1" source="WEL1u7EoO-uWLKGqIcht-223" target="WEL1u7EoO-uWLKGqIcht-224">
          <mxGeometry relative="1" as="geometry" />
        </mxCell>
        <mxCell id="WEL1u7EoO-uWLKGqIcht-223" value="tmin = i" style="rounded=1;whiteSpace=wrap;html=1;absoluteArcSize=1;arcSize=14;strokeWidth=2;fontSize=16;" vertex="1" parent="1">
          <mxGeometry x="280" y="880" width="120" height="40" as="geometry" />
        </mxCell>
        <mxCell id="WEL1u7EoO-uWLKGqIcht-230" value="yes" style="edgeStyle=none;curved=1;rounded=0;orthogonalLoop=1;jettySize=auto;html=1;entryX=0.5;entryY=0;entryDx=0;entryDy=0;fontSize=12;startSize=8;endSize=8;" edge="1" parent="1" source="WEL1u7EoO-uWLKGqIcht-224" target="WEL1u7EoO-uWLKGqIcht-225">
          <mxGeometry relative="1" as="geometry" />
        </mxCell>
        <mxCell id="WEL1u7EoO-uWLKGqIcht-232" value="no" style="edgeStyle=none;curved=1;rounded=0;orthogonalLoop=1;jettySize=auto;html=1;fontSize=12;startSize=8;endSize=8;exitX=1;exitY=0.5;exitDx=0;exitDy=0;exitPerimeter=0;strokeWidth=4;" edge="1" parent="1" source="WEL1u7EoO-uWLKGqIcht-224">
          <mxGeometry x="-0.5788" y="-3" relative="1" as="geometry">
            <mxPoint x="340" y="1100" as="targetPoint" />
            <Array as="points">
              <mxPoint x="430" y="990" />
              <mxPoint x="440" y="1050" />
              <mxPoint x="430" y="1110" />
            </Array>
            <mxPoint as="offset" />
          </mxGeometry>
        </mxCell>
        <mxCell id="WEL1u7EoO-uWLKGqIcht-224" value="arr[tmin] &amp;gt; arr[1]" style="strokeWidth=2;html=1;shape=mxgraph.flowchart.decision;whiteSpace=wrap;fontSize=16;fillColor=#f8cecc;strokeColor=#b85450;" vertex="1" parent="1">
          <mxGeometry x="280" y="960" width="120" height="40" as="geometry" />
        </mxCell>
        <mxCell id="WEL1u7EoO-uWLKGqIcht-231" style="edgeStyle=none;curved=1;rounded=0;orthogonalLoop=1;jettySize=auto;html=1;entryX=0.5;entryY=0;entryDx=0;entryDy=0;entryPerimeter=0;fontSize=12;startSize=8;endSize=8;" edge="1" parent="1" source="WEL1u7EoO-uWLKGqIcht-225" target="WEL1u7EoO-uWLKGqIcht-226">
          <mxGeometry relative="1" as="geometry" />
        </mxCell>
        <mxCell id="WEL1u7EoO-uWLKGqIcht-225" value="tmin = 1" style="rounded=1;whiteSpace=wrap;html=1;absoluteArcSize=1;arcSize=14;strokeWidth=2;fontSize=16;fillColor=#f8cecc;strokeColor=#b85450;" vertex="1" parent="1">
          <mxGeometry x="280" y="1040" width="120" height="40" as="geometry" />
        </mxCell>
        <mxCell id="WEL1u7EoO-uWLKGqIcht-233" style="edgeStyle=none;curved=1;rounded=0;orthogonalLoop=1;jettySize=auto;html=1;entryX=0.5;entryY=0;entryDx=0;entryDy=0;fontSize=12;startSize=8;endSize=8;" edge="1" parent="1" source="WEL1u7EoO-uWLKGqIcht-226" target="WEL1u7EoO-uWLKGqIcht-227">
          <mxGeometry relative="1" as="geometry" />
        </mxCell>
        <mxCell id="WEL1u7EoO-uWLKGqIcht-226" value="arr[tmin] &amp;gt; arr[2]" style="strokeWidth=2;html=1;shape=mxgraph.flowchart.decision;whiteSpace=wrap;fontSize=16;" vertex="1" parent="1">
          <mxGeometry x="280" y="1120" width="120" height="40" as="geometry" />
        </mxCell>
        <mxCell id="WEL1u7EoO-uWLKGqIcht-235" style="edgeStyle=none;curved=1;rounded=0;orthogonalLoop=1;jettySize=auto;html=1;fontSize=12;startSize=8;endSize=8;" edge="1" parent="1" source="WEL1u7EoO-uWLKGqIcht-227">
          <mxGeometry relative="1" as="geometry">
            <mxPoint x="340" y="1280" as="targetPoint" />
          </mxGeometry>
        </mxCell>
        <mxCell id="WEL1u7EoO-uWLKGqIcht-227" value="tmin = 2" style="rounded=1;whiteSpace=wrap;html=1;absoluteArcSize=1;arcSize=14;strokeWidth=2;fontSize=16;" vertex="1" parent="1">
          <mxGeometry x="280" y="1200" width="120" height="40" as="geometry" />
        </mxCell>
        <mxCell id="WEL1u7EoO-uWLKGqIcht-234" value="no" style="edgeStyle=none;curved=1;rounded=0;orthogonalLoop=1;jettySize=auto;html=1;fontSize=12;startSize=8;endSize=8;exitX=1;exitY=0.5;exitDx=0;exitDy=0;exitPerimeter=0;strokeWidth=4;" edge="1" parent="1">
          <mxGeometry x="-0.5788" y="-3" relative="1" as="geometry">
            <mxPoint x="340" y="1260" as="targetPoint" />
            <mxPoint x="400" y="1140" as="sourcePoint" />
            <Array as="points">
              <mxPoint x="430" y="1150" />
              <mxPoint x="440" y="1210" />
              <mxPoint x="430" y="1270" />
            </Array>
            <mxPoint as="offset" />
          </mxGeometry>
        </mxCell>
        <mxCell id="WEL1u7EoO-uWLKGqIcht-236" value="yes" style="edgeStyle=none;curved=1;rounded=0;orthogonalLoop=1;jettySize=auto;html=1;entryX=0.5;entryY=0;entryDx=0;entryDy=0;fontSize=12;startSize=8;endSize=8;" edge="1" parent="1" source="WEL1u7EoO-uWLKGqIcht-237" target="WEL1u7EoO-uWLKGqIcht-238">
          <mxGeometry relative="1" as="geometry" />
        </mxCell>
        <mxCell id="WEL1u7EoO-uWLKGqIcht-248" style="edgeStyle=none;curved=1;rounded=0;orthogonalLoop=1;jettySize=auto;html=1;exitX=0;exitY=0.5;exitDx=0;exitDy=0;exitPerimeter=0;fontSize=12;startSize=8;endSize=8;strokeWidth=4;" edge="1" parent="1" source="WEL1u7EoO-uWLKGqIcht-237">
          <mxGeometry relative="1" as="geometry">
            <mxPoint x="530" y="1180" as="targetPoint" />
            <Array as="points">
              <mxPoint x="450" y="1070" />
              <mxPoint x="450" y="1090" />
              <mxPoint x="450" y="1130" />
              <mxPoint x="450" y="1160" />
              <mxPoint x="470" y="1200" />
            </Array>
          </mxGeometry>
        </mxCell>
        <mxCell id="WEL1u7EoO-uWLKGqIcht-237" value="arr[tmin] &amp;gt; arr[k]" style="strokeWidth=2;html=1;shape=mxgraph.flowchart.decision;whiteSpace=wrap;fontSize=16;fillColor=#f8cecc;strokeColor=#b85450;" vertex="1" parent="1">
          <mxGeometry x="470" y="1040" width="120" height="40" as="geometry" />
        </mxCell>
        <mxCell id="WEL1u7EoO-uWLKGqIcht-246" style="edgeStyle=none;curved=1;rounded=0;orthogonalLoop=1;jettySize=auto;html=1;entryX=0.5;entryY=0;entryDx=0;entryDy=0;fontSize=12;startSize=8;endSize=8;" edge="1" parent="1" source="WEL1u7EoO-uWLKGqIcht-238" target="WEL1u7EoO-uWLKGqIcht-245">
          <mxGeometry relative="1" as="geometry" />
        </mxCell>
        <mxCell id="WEL1u7EoO-uWLKGqIcht-238" value="tmin = k" style="rounded=1;whiteSpace=wrap;html=1;absoluteArcSize=1;arcSize=14;strokeWidth=2;fontSize=16;fillColor=#f8cecc;strokeColor=#b85450;" vertex="1" parent="1">
          <mxGeometry x="470" y="1120" width="120" height="40" as="geometry" />
        </mxCell>
        <mxCell id="WEL1u7EoO-uWLKGqIcht-243" style="edgeStyle=none;curved=1;rounded=0;orthogonalLoop=1;jettySize=auto;html=1;entryX=0.5;entryY=0;entryDx=0;entryDy=0;fontSize=12;startSize=8;endSize=8;" edge="1" parent="1" source="WEL1u7EoO-uWLKGqIcht-239" target="WEL1u7EoO-uWLKGqIcht-242">
          <mxGeometry relative="1" as="geometry" />
        </mxCell>
        <mxCell id="WEL1u7EoO-uWLKGqIcht-239" value="tmin = i" style="rounded=1;whiteSpace=wrap;html=1;absoluteArcSize=1;arcSize=14;strokeWidth=2;fontSize=16;" vertex="1" parent="1">
          <mxGeometry x="470" y="880" width="120" height="40" as="geometry" />
        </mxCell>
        <mxCell id="WEL1u7EoO-uWLKGqIcht-244" style="edgeStyle=none;curved=1;rounded=0;orthogonalLoop=1;jettySize=auto;html=1;entryX=0.5;entryY=0;entryDx=0;entryDy=0;entryPerimeter=0;fontSize=12;startSize=8;endSize=8;" edge="1" parent="1" source="WEL1u7EoO-uWLKGqIcht-242" target="WEL1u7EoO-uWLKGqIcht-237">
          <mxGeometry relative="1" as="geometry" />
        </mxCell>
        <mxCell id="WEL1u7EoO-uWLKGqIcht-242" value="k = 1" style="rounded=1;whiteSpace=wrap;html=1;absoluteArcSize=1;arcSize=14;strokeWidth=2;fontSize=16;" vertex="1" parent="1">
          <mxGeometry x="470" y="960" width="120" height="40" as="geometry" />
        </mxCell>
        <mxCell id="WEL1u7EoO-uWLKGqIcht-247" style="edgeStyle=none;curved=1;rounded=0;orthogonalLoop=1;jettySize=auto;html=1;fontSize=12;startSize=8;endSize=8;exitX=0.5;exitY=1;exitDx=0;exitDy=0;strokeWidth=4;" edge="1" parent="1" source="WEL1u7EoO-uWLKGqIcht-245">
          <mxGeometry relative="1" as="geometry">
            <mxPoint x="530" y="1020" as="targetPoint" />
            <mxPoint x="520" y="1250" as="sourcePoint" />
            <Array as="points">
              <mxPoint x="560" y="1300" />
              <mxPoint x="610" y="1260" />
              <mxPoint x="610" y="1180" />
              <mxPoint x="620" y="1020" />
            </Array>
          </mxGeometry>
        </mxCell>
        <mxCell id="WEL1u7EoO-uWLKGqIcht-245" value="k = k + 1" style="rounded=1;whiteSpace=wrap;html=1;absoluteArcSize=1;arcSize=14;strokeWidth=2;fontSize=16;" vertex="1" parent="1">
          <mxGeometry x="470" y="1200" width="120" height="40" as="geometry" />
        </mxCell>
        <mxCell id="WEL1u7EoO-uWLKGqIcht-249" value="yes" style="edgeStyle=none;curved=1;rounded=0;orthogonalLoop=1;jettySize=auto;html=1;entryX=0.5;entryY=0;entryDx=0;entryDy=0;fontSize=12;startSize=8;endSize=8;" edge="1" parent="1" source="WEL1u7EoO-uWLKGqIcht-251" target="WEL1u7EoO-uWLKGqIcht-253">
          <mxGeometry relative="1" as="geometry" />
        </mxCell>
        <mxCell id="WEL1u7EoO-uWLKGqIcht-250" style="edgeStyle=none;curved=1;rounded=0;orthogonalLoop=1;jettySize=auto;html=1;exitX=0;exitY=0.5;exitDx=0;exitDy=0;exitPerimeter=0;fontSize=12;startSize=8;endSize=8;strokeWidth=4;" edge="1" parent="1" source="WEL1u7EoO-uWLKGqIcht-251">
          <mxGeometry relative="1" as="geometry">
            <mxPoint x="737" y="1180" as="targetPoint" />
            <Array as="points">
              <mxPoint x="657" y="1070" />
              <mxPoint x="657" y="1090" />
              <mxPoint x="657" y="1130" />
              <mxPoint x="657" y="1160" />
              <mxPoint x="677" y="1200" />
            </Array>
          </mxGeometry>
        </mxCell>
        <mxCell id="WEL1u7EoO-uWLKGqIcht-251" value="arr[tmin] &amp;gt; arr[k]" style="strokeWidth=2;html=1;shape=mxgraph.flowchart.decision;whiteSpace=wrap;fontSize=16;fillColor=#f8cecc;strokeColor=#b85450;" vertex="1" parent="1">
          <mxGeometry x="677" y="1040" width="120" height="40" as="geometry" />
        </mxCell>
        <mxCell id="WEL1u7EoO-uWLKGqIcht-252" style="edgeStyle=none;curved=1;rounded=0;orthogonalLoop=1;jettySize=auto;html=1;entryX=0.5;entryY=0;entryDx=0;entryDy=0;fontSize=12;startSize=8;endSize=8;" edge="1" parent="1" source="WEL1u7EoO-uWLKGqIcht-253" target="WEL1u7EoO-uWLKGqIcht-259">
          <mxGeometry relative="1" as="geometry" />
        </mxCell>
        <mxCell id="WEL1u7EoO-uWLKGqIcht-253" value="tmin = k" style="rounded=1;whiteSpace=wrap;html=1;absoluteArcSize=1;arcSize=14;strokeWidth=2;fontSize=16;fillColor=#f8cecc;strokeColor=#b85450;" vertex="1" parent="1">
          <mxGeometry x="677" y="1120" width="120" height="40" as="geometry" />
        </mxCell>
        <mxCell id="WEL1u7EoO-uWLKGqIcht-254" style="edgeStyle=none;curved=1;rounded=0;orthogonalLoop=1;jettySize=auto;html=1;entryX=0.5;entryY=0;entryDx=0;entryDy=0;fontSize=12;startSize=8;endSize=8;" edge="1" parent="1" source="WEL1u7EoO-uWLKGqIcht-255" target="WEL1u7EoO-uWLKGqIcht-257">
          <mxGeometry relative="1" as="geometry" />
        </mxCell>
        <mxCell id="WEL1u7EoO-uWLKGqIcht-255" value="tmin = i" style="rounded=1;whiteSpace=wrap;html=1;absoluteArcSize=1;arcSize=14;strokeWidth=2;fontSize=16;" vertex="1" parent="1">
          <mxGeometry x="677" y="800" width="120" height="40" as="geometry" />
        </mxCell>
        <mxCell id="WEL1u7EoO-uWLKGqIcht-261" value="" style="edgeStyle=none;curved=1;rounded=0;orthogonalLoop=1;jettySize=auto;html=1;fontSize=12;startSize=8;endSize=8;" edge="1" parent="1" source="WEL1u7EoO-uWLKGqIcht-257" target="WEL1u7EoO-uWLKGqIcht-251">
          <mxGeometry relative="1" as="geometry" />
        </mxCell>
        <mxCell id="WEL1u7EoO-uWLKGqIcht-257" value="k = i + 1" style="rounded=1;whiteSpace=wrap;html=1;absoluteArcSize=1;arcSize=14;strokeWidth=2;fontSize=16;" vertex="1" parent="1">
          <mxGeometry x="677" y="880" width="120" height="40" as="geometry" />
        </mxCell>
        <mxCell id="WEL1u7EoO-uWLKGqIcht-258" style="edgeStyle=none;curved=1;rounded=0;orthogonalLoop=1;jettySize=auto;html=1;fontSize=12;startSize=8;endSize=8;exitX=0.5;exitY=1;exitDx=0;exitDy=0;strokeWidth=4;" edge="1" parent="1" source="WEL1u7EoO-uWLKGqIcht-259">
          <mxGeometry relative="1" as="geometry">
            <mxPoint x="737" y="940" as="targetPoint" />
            <mxPoint x="727" y="1250" as="sourcePoint" />
            <Array as="points">
              <mxPoint x="767" y="1300" />
              <mxPoint x="817" y="1260" />
              <mxPoint x="817" y="1180" />
              <mxPoint x="820" y="940" />
            </Array>
          </mxGeometry>
        </mxCell>
        <mxCell id="WEL1u7EoO-uWLKGqIcht-259" value="k = k + 1" style="rounded=1;whiteSpace=wrap;html=1;absoluteArcSize=1;arcSize=14;strokeWidth=2;fontSize=16;" vertex="1" parent="1">
          <mxGeometry x="677" y="1200" width="120" height="40" as="geometry" />
        </mxCell>
        <mxCell id="WEL1u7EoO-uWLKGqIcht-262" value="교환" style="edgeStyle=none;curved=1;rounded=0;orthogonalLoop=1;jettySize=auto;html=1;fontSize=12;startSize=8;endSize=8;" edge="1" parent="1" source="WEL1u7EoO-uWLKGqIcht-260">
          <mxGeometry relative="1" as="geometry">
            <mxPoint x="630" y="979.9999999999998" as="targetPoint" />
          </mxGeometry>
        </mxCell>
        <mxCell id="WEL1u7EoO-uWLKGqIcht-260" value="k &amp;lt; arr.length" style="strokeWidth=2;html=1;shape=mxgraph.flowchart.decision;whiteSpace=wrap;fontSize=16;fillColor=#f8cecc;strokeColor=#b85450;" vertex="1" parent="1">
          <mxGeometry x="677" y="960" width="120" height="40" as="geometry" />
        </mxCell>
        <mxCell id="WEL1u7EoO-uWLKGqIcht-267" style="edgeStyle=none;curved=1;rounded=0;orthogonalLoop=1;jettySize=auto;html=1;entryX=0.5;entryY=0;entryDx=0;entryDy=0;fontSize=12;startSize=8;endSize=8;" edge="1" parent="1" source="WEL1u7EoO-uWLKGqIcht-263" target="WEL1u7EoO-uWLKGqIcht-264">
          <mxGeometry relative="1" as="geometry" />
        </mxCell>
        <mxCell id="WEL1u7EoO-uWLKGqIcht-263" value="temp = arr[tmin]" style="rounded=1;whiteSpace=wrap;html=1;absoluteArcSize=1;arcSize=14;strokeWidth=2;fontSize=16;" vertex="1" parent="1">
          <mxGeometry x="677" y="520" width="120" height="40" as="geometry" />
        </mxCell>
        <mxCell id="WEL1u7EoO-uWLKGqIcht-268" style="edgeStyle=none;curved=1;rounded=0;orthogonalLoop=1;jettySize=auto;html=1;entryX=0.5;entryY=0;entryDx=0;entryDy=0;fontSize=12;startSize=8;endSize=8;" edge="1" parent="1" source="WEL1u7EoO-uWLKGqIcht-264" target="WEL1u7EoO-uWLKGqIcht-265">
          <mxGeometry relative="1" as="geometry" />
        </mxCell>
        <mxCell id="WEL1u7EoO-uWLKGqIcht-264" value="arr[tmin] = arr[i]" style="rounded=1;whiteSpace=wrap;html=1;absoluteArcSize=1;arcSize=14;strokeWidth=2;fontSize=16;" vertex="1" parent="1">
          <mxGeometry x="677" y="600" width="120" height="40" as="geometry" />
        </mxCell>
        <mxCell id="WEL1u7EoO-uWLKGqIcht-265" value="arr[i] = temp" style="rounded=1;whiteSpace=wrap;html=1;absoluteArcSize=1;arcSize=14;strokeWidth=2;fontSize=16;" vertex="1" parent="1">
          <mxGeometry x="677" y="680" width="120" height="40" as="geometry" />
        </mxCell>
        <mxCell id="WEL1u7EoO-uWLKGqIcht-277" value="yes" style="edgeStyle=none;curved=1;rounded=0;orthogonalLoop=1;jettySize=auto;html=1;entryX=0.5;entryY=0;entryDx=0;entryDy=0;fontSize=12;startSize=8;endSize=8;" edge="1" parent="1" source="WEL1u7EoO-uWLKGqIcht-279" target="WEL1u7EoO-uWLKGqIcht-281">
          <mxGeometry relative="1" as="geometry" />
        </mxCell>
        <mxCell id="WEL1u7EoO-uWLKGqIcht-313" value="no" style="edgeStyle=none;rounded=0;orthogonalLoop=1;jettySize=auto;html=1;exitX=0;exitY=0.5;exitDx=0;exitDy=0;exitPerimeter=0;fontSize=12;startSize=8;endSize=8;" edge="1" parent="1" source="WEL1u7EoO-uWLKGqIcht-279">
          <mxGeometry x="-0.3846" relative="1" as="geometry">
            <mxPoint x="500" y="1980" as="targetPoint" />
            <Array as="points">
              <mxPoint x="400" y="1860" />
              <mxPoint x="400" y="1980" />
            </Array>
            <mxPoint as="offset" />
          </mxGeometry>
        </mxCell>
        <mxCell id="WEL1u7EoO-uWLKGqIcht-279" value="arr[tmin] &amp;gt; arr[k]" style="strokeWidth=2;html=1;shape=mxgraph.flowchart.decision;whiteSpace=wrap;fontSize=16;fillColor=#f8cecc;strokeColor=#b85450;gradientColor=#ea6b66;" vertex="1" parent="1">
          <mxGeometry x="440" y="1840" width="117" height="40" as="geometry" />
        </mxCell>
        <mxCell id="WEL1u7EoO-uWLKGqIcht-280" style="edgeStyle=none;curved=1;rounded=0;orthogonalLoop=1;jettySize=auto;html=1;entryX=0.5;entryY=0;entryDx=0;entryDy=0;fontSize=12;startSize=8;endSize=8;" edge="1" parent="1" source="WEL1u7EoO-uWLKGqIcht-281" target="WEL1u7EoO-uWLKGqIcht-287">
          <mxGeometry relative="1" as="geometry" />
        </mxCell>
        <mxCell id="WEL1u7EoO-uWLKGqIcht-281" value="tmin = k" style="rounded=1;whiteSpace=wrap;html=1;absoluteArcSize=1;arcSize=14;strokeWidth=2;fontSize=16;fillColor=#f8cecc;strokeColor=#b85450;gradientColor=#ea6b66;" vertex="1" parent="1">
          <mxGeometry x="440" y="1920" width="117" height="40" as="geometry" />
        </mxCell>
        <mxCell id="WEL1u7EoO-uWLKGqIcht-282" style="edgeStyle=none;curved=1;rounded=0;orthogonalLoop=1;jettySize=auto;html=1;entryX=0.5;entryY=0;entryDx=0;entryDy=0;fontSize=12;startSize=8;endSize=8;" edge="1" parent="1" source="WEL1u7EoO-uWLKGqIcht-283" target="WEL1u7EoO-uWLKGqIcht-285">
          <mxGeometry relative="1" as="geometry" />
        </mxCell>
        <mxCell id="WEL1u7EoO-uWLKGqIcht-283" value="tmin = i" style="rounded=1;whiteSpace=wrap;html=1;absoluteArcSize=1;arcSize=14;strokeWidth=2;fontSize=16;fillColor=#fff2cc;gradientColor=#ffd966;strokeColor=#d6b656;" vertex="1" parent="1">
          <mxGeometry x="440" y="1600" width="120" height="40" as="geometry" />
        </mxCell>
        <mxCell id="WEL1u7EoO-uWLKGqIcht-314" style="edgeStyle=none;curved=1;rounded=0;orthogonalLoop=1;jettySize=auto;html=1;entryX=0.5;entryY=0;entryDx=0;entryDy=0;entryPerimeter=0;fontSize=12;startSize=8;endSize=8;" edge="1" parent="1" source="WEL1u7EoO-uWLKGqIcht-285" target="WEL1u7EoO-uWLKGqIcht-289">
          <mxGeometry relative="1" as="geometry" />
        </mxCell>
        <mxCell id="WEL1u7EoO-uWLKGqIcht-285" value="k = i + 1" style="rounded=1;whiteSpace=wrap;html=1;absoluteArcSize=1;arcSize=14;strokeWidth=2;fontSize=16;fillColor=#fff2cc;gradientColor=#ffd966;strokeColor=#d6b656;" vertex="1" parent="1">
          <mxGeometry x="440" y="1680" width="120" height="40" as="geometry" />
        </mxCell>
        <mxCell id="WEL1u7EoO-uWLKGqIcht-312" style="edgeStyle=none;rounded=0;orthogonalLoop=1;jettySize=auto;html=1;fontSize=12;startSize=8;endSize=8;exitX=0.5;exitY=1;exitDx=0;exitDy=0;" edge="1" parent="1" source="WEL1u7EoO-uWLKGqIcht-287">
          <mxGeometry relative="1" as="geometry">
            <mxPoint x="498.5" y="1740" as="targetPoint" />
            <Array as="points">
              <mxPoint x="499" y="2080" />
              <mxPoint x="600" y="2080" />
              <mxPoint x="600" y="1740" />
            </Array>
          </mxGeometry>
        </mxCell>
        <mxCell id="WEL1u7EoO-uWLKGqIcht-287" value="k = k + 1" style="rounded=1;whiteSpace=wrap;html=1;absoluteArcSize=1;arcSize=14;strokeWidth=2;fontSize=16;fillColor=#f8cecc;gradientColor=#ea6b66;strokeColor=#b85450;" vertex="1" parent="1">
          <mxGeometry x="440" y="2000" width="117" height="40" as="geometry" />
        </mxCell>
        <mxCell id="WEL1u7EoO-uWLKGqIcht-308" value="no" style="edgeStyle=none;rounded=0;orthogonalLoop=1;jettySize=auto;html=1;entryX=0.5;entryY=0;entryDx=0;entryDy=0;fontSize=12;startSize=8;endSize=8;" edge="1" parent="1" source="WEL1u7EoO-uWLKGqIcht-289" target="WEL1u7EoO-uWLKGqIcht-291">
          <mxGeometry x="-0.6" relative="1" as="geometry">
            <Array as="points">
              <mxPoint x="300" y="1780" />
            </Array>
            <mxPoint as="offset" />
          </mxGeometry>
        </mxCell>
        <mxCell id="WEL1u7EoO-uWLKGqIcht-315" value="yes" style="edgeStyle=none;curved=1;rounded=0;orthogonalLoop=1;jettySize=auto;html=1;entryX=0.5;entryY=0;entryDx=0;entryDy=0;entryPerimeter=0;fontSize=12;startSize=8;endSize=8;" edge="1" parent="1" source="WEL1u7EoO-uWLKGqIcht-289" target="WEL1u7EoO-uWLKGqIcht-279">
          <mxGeometry relative="1" as="geometry" />
        </mxCell>
        <mxCell id="WEL1u7EoO-uWLKGqIcht-289" value="k &amp;lt; arr.length" style="strokeWidth=2;html=1;shape=mxgraph.flowchart.decision;whiteSpace=wrap;fontSize=16;fillColor=#f8cecc;strokeColor=#b85450;gradientColor=#ea6b66;" vertex="1" parent="1">
          <mxGeometry x="440" y="1760" width="117" height="40" as="geometry" />
        </mxCell>
        <mxCell id="WEL1u7EoO-uWLKGqIcht-290" style="edgeStyle=none;curved=1;rounded=0;orthogonalLoop=1;jettySize=auto;html=1;entryX=0.5;entryY=0;entryDx=0;entryDy=0;fontSize=12;startSize=8;endSize=8;" edge="1" parent="1" source="WEL1u7EoO-uWLKGqIcht-291" target="WEL1u7EoO-uWLKGqIcht-293">
          <mxGeometry relative="1" as="geometry" />
        </mxCell>
        <mxCell id="WEL1u7EoO-uWLKGqIcht-291" value="temp = arr[tmin]" style="rounded=1;whiteSpace=wrap;html=1;absoluteArcSize=1;arcSize=14;strokeWidth=2;fontSize=16;fillColor=#dae8fc;gradientColor=#7ea6e0;strokeColor=#6c8ebf;" vertex="1" parent="1">
          <mxGeometry x="240" y="1840" width="120" height="40" as="geometry" />
        </mxCell>
        <mxCell id="WEL1u7EoO-uWLKGqIcht-292" style="edgeStyle=none;curved=1;rounded=0;orthogonalLoop=1;jettySize=auto;html=1;entryX=0.5;entryY=0;entryDx=0;entryDy=0;fontSize=12;startSize=8;endSize=8;" edge="1" parent="1" source="WEL1u7EoO-uWLKGqIcht-293" target="WEL1u7EoO-uWLKGqIcht-294">
          <mxGeometry relative="1" as="geometry" />
        </mxCell>
        <mxCell id="WEL1u7EoO-uWLKGqIcht-293" value="arr[tmin] = arr[i]" style="rounded=1;whiteSpace=wrap;html=1;absoluteArcSize=1;arcSize=14;strokeWidth=2;fontSize=16;fillColor=#dae8fc;gradientColor=#7ea6e0;strokeColor=#6c8ebf;" vertex="1" parent="1">
          <mxGeometry x="240" y="1920" width="120" height="40" as="geometry" />
        </mxCell>
        <mxCell id="WEL1u7EoO-uWLKGqIcht-310" style="edgeStyle=none;curved=1;rounded=0;orthogonalLoop=1;jettySize=auto;html=1;entryX=0.5;entryY=0;entryDx=0;entryDy=0;fontSize=12;startSize=8;endSize=8;" edge="1" parent="1" source="WEL1u7EoO-uWLKGqIcht-294" target="WEL1u7EoO-uWLKGqIcht-309">
          <mxGeometry relative="1" as="geometry" />
        </mxCell>
        <mxCell id="WEL1u7EoO-uWLKGqIcht-294" value="arr[i] = temp" style="rounded=1;whiteSpace=wrap;html=1;absoluteArcSize=1;arcSize=14;strokeWidth=2;fontSize=16;fillColor=#dae8fc;gradientColor=#7ea6e0;strokeColor=#6c8ebf;" vertex="1" parent="1">
          <mxGeometry x="240" y="2000" width="120" height="40" as="geometry" />
        </mxCell>
        <mxCell id="WEL1u7EoO-uWLKGqIcht-302" style="edgeStyle=none;curved=1;rounded=0;orthogonalLoop=1;jettySize=auto;html=1;entryX=0.5;entryY=0;entryDx=0;entryDy=0;entryPerimeter=0;fontSize=12;startSize=8;endSize=8;" edge="1" parent="1" source="WEL1u7EoO-uWLKGqIcht-295" target="WEL1u7EoO-uWLKGqIcht-301">
          <mxGeometry relative="1" as="geometry" />
        </mxCell>
        <mxCell id="WEL1u7EoO-uWLKGqIcht-295" value="arr&lt;br&gt;i = 0" style="shape=parallelogram;html=1;strokeWidth=2;perimeter=parallelogramPerimeter;whiteSpace=wrap;rounded=1;arcSize=12;size=0.23;fontSize=16;fillColor=#fff2cc;gradientColor=#ffd966;strokeColor=#d6b656;" vertex="1" parent="1">
          <mxGeometry x="440" y="1440" width="120" height="40" as="geometry" />
        </mxCell>
        <mxCell id="WEL1u7EoO-uWLKGqIcht-300" style="edgeStyle=none;curved=1;rounded=0;orthogonalLoop=1;jettySize=auto;html=1;entryX=0.5;entryY=0;entryDx=0;entryDy=0;fontSize=12;startSize=8;endSize=8;" edge="1" parent="1" source="WEL1u7EoO-uWLKGqIcht-298" target="WEL1u7EoO-uWLKGqIcht-295">
          <mxGeometry relative="1" as="geometry" />
        </mxCell>
        <mxCell id="WEL1u7EoO-uWLKGqIcht-298" value="start" style="strokeWidth=2;html=1;shape=mxgraph.flowchart.start_1;whiteSpace=wrap;fontSize=16;fillColor=#f5f5f5;gradientColor=#b3b3b3;strokeColor=#666666;" vertex="1" parent="1">
          <mxGeometry x="440" y="1360" width="120" height="40" as="geometry" />
        </mxCell>
        <mxCell id="WEL1u7EoO-uWLKGqIcht-303" value="yes" style="edgeStyle=none;curved=1;rounded=0;orthogonalLoop=1;jettySize=auto;html=1;entryX=0.5;entryY=0;entryDx=0;entryDy=0;fontSize=12;startSize=8;endSize=8;" edge="1" parent="1" source="WEL1u7EoO-uWLKGqIcht-301" target="WEL1u7EoO-uWLKGqIcht-283">
          <mxGeometry relative="1" as="geometry" />
        </mxCell>
        <mxCell id="WEL1u7EoO-uWLKGqIcht-306" value="no" style="edgeStyle=none;rounded=0;orthogonalLoop=1;jettySize=auto;html=1;entryX=0.5;entryY=0;entryDx=0;entryDy=0;entryPerimeter=0;fontSize=12;startSize=8;endSize=8;" edge="1" parent="1" source="WEL1u7EoO-uWLKGqIcht-301" target="WEL1u7EoO-uWLKGqIcht-304">
          <mxGeometry x="-0.8438" relative="1" as="geometry">
            <Array as="points">
              <mxPoint x="700" y="1540" />
            </Array>
            <mxPoint x="1" as="offset" />
          </mxGeometry>
        </mxCell>
        <mxCell id="WEL1u7EoO-uWLKGqIcht-301" value="i &amp;lt; arr.length" style="strokeWidth=2;html=1;shape=mxgraph.flowchart.decision;whiteSpace=wrap;fontSize=16;fillColor=#f8cecc;strokeColor=#b85450;" vertex="1" parent="1">
          <mxGeometry x="443" y="1520" width="117" height="40" as="geometry" />
        </mxCell>
        <mxCell id="WEL1u7EoO-uWLKGqIcht-319" style="edgeStyle=none;rounded=0;orthogonalLoop=1;jettySize=auto;html=1;entryX=0.5;entryY=0;entryDx=0;entryDy=0;entryPerimeter=0;fontSize=12;startSize=8;endSize=8;exitX=0.488;exitY=0.945;exitDx=0;exitDy=0;exitPerimeter=0;" edge="1" parent="1" source="WEL1u7EoO-uWLKGqIcht-304" target="WEL1u7EoO-uWLKGqIcht-307">
          <mxGeometry relative="1" as="geometry">
            <Array as="points">
              <mxPoint x="700" y="2160" />
              <mxPoint x="560" y="2160" />
              <mxPoint x="500" y="2160" />
            </Array>
          </mxGeometry>
        </mxCell>
        <mxCell id="WEL1u7EoO-uWLKGqIcht-304" value="arr" style="strokeWidth=2;html=1;shape=mxgraph.flowchart.document2;whiteSpace=wrap;size=0.25;fontSize=16;fillColor=#fff2cc;gradientColor=#ffd966;strokeColor=#d6b656;" vertex="1" parent="1">
          <mxGeometry x="640" y="2080" width="120" height="60" as="geometry" />
        </mxCell>
        <mxCell id="WEL1u7EoO-uWLKGqIcht-307" value="end" style="strokeWidth=2;html=1;shape=mxgraph.flowchart.start_1;whiteSpace=wrap;fontSize=16;fillColor=#f5f5f5;gradientColor=#b3b3b3;strokeColor=#666666;" vertex="1" parent="1">
          <mxGeometry x="438.5" y="2200" width="120" height="40" as="geometry" />
        </mxCell>
        <mxCell id="WEL1u7EoO-uWLKGqIcht-311" style="edgeStyle=none;rounded=0;orthogonalLoop=1;jettySize=auto;html=1;exitX=0.5;exitY=1;exitDx=0;exitDy=0;fontSize=12;startSize=8;endSize=8;" edge="1" parent="1" source="WEL1u7EoO-uWLKGqIcht-309">
          <mxGeometry relative="1" as="geometry">
            <mxPoint x="500" y="1498.1175321691176" as="targetPoint" />
            <Array as="points">
              <mxPoint x="300" y="2160" />
              <mxPoint x="200" y="2160" />
              <mxPoint x="200" y="1500" />
            </Array>
          </mxGeometry>
        </mxCell>
        <mxCell id="WEL1u7EoO-uWLKGqIcht-309" value="i = i + 1" style="rounded=1;whiteSpace=wrap;html=1;absoluteArcSize=1;arcSize=14;strokeWidth=2;fontSize=16;fillColor=#dae8fc;gradientColor=#7ea6e0;strokeColor=#6c8ebf;" vertex="1" parent="1">
          <mxGeometry x="240" y="2080" width="120" height="40" as="geometry" />
        </mxCell>
      </root>
    </mxGraphModel>
  </diagram>
</mxfile>
